<svg width="375" height="48" viewBox="0 0 375 48" fill="none" xmlns="http://www.w3.org/2000/svg">
<path d="M282.333 31C282.977 31 283.5 31.5037 283.5 32.125V34.375C283.5 34.9963 282.977 35.5 282.333 35.5H281.167C280.523 35.5 280 34.9963 280 34.375V32.125C280 31.5037 280.523 31 281.167 31H282.333ZM287.823 28.75C288.468 28.75 288.99 29.2537 288.99 29.875V34.375C288.99 34.9963 288.468 35.5 287.823 35.5H286.657C286.013 35.5 285.49 34.9963 285.49 34.375V29.875C285.49 29.2537 286.013 28.75 286.657 28.75H287.823ZM293.313 26.125C293.958 26.125 294.48 26.6287 294.48 27.25V34.375C294.48 34.9963 293.958 35.5 293.313 35.5H292.147C291.503 35.5 290.98 34.9963 290.98 34.375V27.25C290.981 26.6287 291.503 26.125 292.147 26.125H293.313ZM298.804 23.5C299.448 23.5 299.971 24.0037 299.971 24.625V34.375C299.971 34.9963 299.448 35.5 298.804 35.5H297.638C296.993 35.5 296.471 34.9963 296.471 34.375V24.625C296.471 24.0037 296.993 23.5 297.638 23.5H298.804Z" fill="#1A1A1A"/>
<path fill-rule="evenodd" clip-rule="evenodd" d="M312.01 32.8262C313.43 31.5964 315.509 31.5964 316.929 32.8262C317 32.8924 317.042 32.9855 317.044 33.084C317.046 33.1826 317.008 33.2777 316.939 33.3467L314.716 35.6446C314.651 35.7121 314.561 35.7501 314.469 35.7501C314.376 35.7499 314.288 35.7119 314.223 35.6446L311.999 33.3467C311.93 33.2776 311.893 33.1826 311.895 33.084C311.897 32.9855 311.938 32.8923 312.01 32.8262ZM309.043 29.7608C312.102 26.8467 316.839 26.8467 319.898 29.7608C319.967 29.829 320.007 29.9225 320.008 30.0206C320.009 30.1188 319.971 30.2135 319.903 30.2833L318.618 31.6133C318.486 31.7491 318.272 31.7524 318.136 31.6202C317.131 30.6886 315.824 30.1728 314.469 30.1729C313.115 30.1736 311.809 30.6895 310.806 31.6202C310.67 31.7524 310.456 31.7491 310.323 31.6133L309.038 30.2833C308.97 30.2136 308.933 30.1189 308.934 30.0206C308.935 29.9224 308.974 29.829 309.043 29.7608ZM306.076 26.7032C310.768 22.0989 318.17 22.099 322.861 26.7032C322.929 26.7716 322.968 26.8654 322.969 26.963C322.969 27.0605 322.931 27.1545 322.864 27.2237L321.578 28.5538C321.446 28.6901 321.23 28.691 321.096 28.5567C319.308 26.8164 316.935 25.8459 314.469 25.8458C312.002 25.8459 309.63 26.8163 307.842 28.5567C307.707 28.6913 307.492 28.6904 307.359 28.5538L306.072 27.2237C306.005 27.1545 305.968 27.0605 305.969 26.963C305.969 26.8654 306.008 26.7715 306.076 26.7032Z" fill="#1A1A1A"/>
<g clip-path="url(#clip0_109_2375)">
<rect opacity="0.4" x="329.469" y="23.5" width="24" height="12" rx="3.5" stroke="#1A1A1A"/>
<path opacity="0.5" d="M354.969 27.5V31.5C355.775 31.1612 356.299 30.3731 356.299 29.5C356.299 28.6269 355.775 27.8388 354.969 27.5Z" fill="#1A1A1A"/>
<rect x="330.969" y="25" width="21" height="9" rx="2" fill="#1A1A1A"/>
</g>
<path d="M37.2549 36.2988C40.1021 36.2988 41.8286 33.8833 41.8286 30.0151V29.9985C41.8286 26.1304 40.1021 23.7231 37.2549 23.7231C34.4077 23.7231 32.6978 26.1304 32.6978 29.9985V30.0151C32.6978 33.8833 34.4077 36.2988 37.2549 36.2988ZM37.2549 34.564C35.7275 34.564 34.856 32.854 34.856 30.0151V29.9985C34.856 27.1597 35.7275 25.4663 37.2549 25.4663C38.7822 25.4663 39.6704 27.1597 39.6704 29.9985V30.0151C39.6704 32.854 38.7822 34.564 37.2549 34.564ZM47.9194 23.7231C45.3213 23.7231 43.4702 25.4995 43.4702 27.9316V27.9482C43.4702 30.2227 45.0806 31.8994 47.3799 31.8994C49.0234 31.8994 50.0693 31.061 50.5093 30.1147H50.6753C50.6753 30.2061 50.667 30.2974 50.667 30.3887C50.5757 32.6797 49.7705 34.5391 47.8696 34.5391C46.8154 34.5391 46.0767 33.9912 45.7612 33.1528L45.7363 33.0698H43.6279L43.6445 33.1611C44.0264 34.9956 45.6699 36.2988 47.8696 36.2988C50.8828 36.2988 52.7007 33.9082 52.7007 29.874V29.8574C52.7007 25.541 50.4761 23.7231 47.9194 23.7231ZM47.9111 30.2559C46.5498 30.2559 45.562 29.2598 45.562 27.8735V27.8569C45.562 26.5205 46.6162 25.4663 47.936 25.4663C49.2642 25.4663 50.3018 26.5371 50.3018 27.9067V27.9233C50.3018 29.2764 49.2642 30.2559 47.9111 30.2559ZM55.9692 28.2388C56.7329 28.2388 57.2891 27.6577 57.2891 26.9272C57.2891 26.1885 56.7329 25.6157 55.9692 25.6157C55.2139 25.6157 54.6494 26.1885 54.6494 26.9272C54.6494 27.6577 55.2139 28.2388 55.9692 28.2388ZM55.9692 34.3979C56.7329 34.3979 57.2891 33.8252 57.2891 33.0864C57.2891 32.3477 56.7329 31.7749 55.9692 31.7749C55.2139 31.7749 54.6494 32.3477 54.6494 33.0864C54.6494 33.8252 55.2139 34.3979 55.9692 34.3979ZM65.0483 36H67.0986V33.7007H68.709V31.9326H67.0986V24.022H64.0688C62.4419 26.4956 60.7402 29.2515 59.188 31.9492V33.7007H65.0483V36ZM61.1802 31.9824V31.8579C62.3423 29.8242 63.7285 27.6079 64.957 25.7319H65.0815V31.9824H61.1802ZM73.1729 36H75.3145V24.022H73.1812L70.0518 26.2217V28.2388L73.0317 26.1304H73.1729V36Z" fill="#1A1A1A"/>
<defs>
<clipPath id="clip0_109_2375">
<rect width="27.33" height="13" fill="white" transform="translate(328.969 23)"/>
</clipPath>
</defs>
</svg>
