<svg width="24" height="24" viewBox="0 0 24 24" fill="none" xmlns="http://www.w3.org/2000/svg">
<path d="M8.27107 16.3854C6.01015 14.1201 4.27141 11.3882 3.17646 8.38083C2.57407 6.7366 3.126 4.93046 4.36443 3.69203L5.13083 2.92668C5.33687 2.72023 5.58161 2.55643 5.85103 2.44467C6.12045 2.33292 6.40927 2.27539 6.70095 2.27539C6.99263 2.27539 7.28145 2.33292 7.55087 2.44467C7.82029 2.55643 8.06503 2.72023 8.27107 2.92668L10.0656 4.72125C10.2721 4.9273 10.4359 5.17203 10.5477 5.44145C10.6594 5.71087 10.7169 5.99969 10.7169 6.29137C10.7169 6.58305 10.6594 6.87187 10.5477 7.14129C10.4359 7.41071 10.2721 7.65545 10.0656 7.86149L9.62409 8.30304C9.44735 8.47974 9.30715 8.68953 9.2115 8.92042C9.11585 9.15131 9.06662 9.39878 9.06662 9.6487C9.06662 9.89862 9.11585 10.1461 9.2115 10.377C9.30715 10.6079 9.44735 10.8177 9.62409 10.9944L13.6611 15.0324C13.8378 15.2092 14.0476 15.3494 14.2785 15.445C14.5094 15.5407 14.7568 15.5899 15.0068 15.5899C15.2567 15.5899 15.5042 15.5407 15.735 15.445C15.9659 15.3494 16.1757 15.2092 16.3524 15.0324L16.795 14.5909C17.0011 14.3844 17.2458 14.2206 17.5152 14.1089C17.7846 13.9971 18.0735 13.9396 18.3651 13.9396C18.6568 13.9396 18.9456 13.9971 19.2151 14.1089C19.4845 14.2206 19.7292 14.3844 19.9353 14.5909L21.7298 16.3854C21.9363 16.5915 22.1001 16.8362 22.2118 17.1056C22.3236 17.3751 22.3811 17.6639 22.3811 17.9556C22.3811 18.2472 22.3236 18.5361 22.2118 18.8055C22.1001 19.0749 21.9363 19.3196 21.7298 19.5257L20.9645 20.291C19.726 21.5305 17.9199 22.0824 16.2757 21.48C13.2683 20.3851 10.5364 18.6464 8.27107 16.3854Z" stroke="#0A1014" stroke-width="1.8" stroke-linejoin="round"/>
</svg>
