<svg width="20" height="20" viewBox="0 0 20 20" fill="none" xmlns="http://www.w3.org/2000/svg">
<path d="M16.1578 2.00082C16.661 2.00106 17.1553 2.1337 17.591 2.38543C18.0267 2.63715 18.3886 2.99909 18.6401 3.4349C18.8917 3.87071 19.0242 4.36505 19.0242 4.86826C19.0243 5.37147 18.892 5.86583 18.6405 6.30171L12.4952 16.9454C12.2116 17.4364 11.7889 17.8323 11.2804 18.0831C10.7719 18.334 10.2005 18.4284 9.6383 18.3546C9.07613 18.2808 8.54847 18.0419 8.12198 17.6683C7.6955 17.2947 7.38934 16.803 7.24219 16.2555L6.01313 11.6711L13.199 7.52176C13.3857 7.41233 13.5215 7.23351 13.5768 7.02433C13.6321 6.81515 13.6024 6.59258 13.4942 6.4052C13.386 6.21782 13.2081 6.08084 12.9993 6.02415C12.7905 5.96746 12.5678 5.99566 12.3797 6.1026L5.19458 10.2511L1.84007 6.89575C1.439 6.49473 1.16585 5.9838 1.05516 5.42755C0.944458 4.87129 1.00118 4.29471 1.21815 3.77069C1.43513 3.24668 1.80261 2.79877 2.27413 2.48359C2.74565 2.16841 3.30004 2.00012 3.86719 2L16.1578 2.00082Z" fill="#FEFFFF"/>
</svg>
