<svg width="36" height="36" viewBox="0 0 36 36" fill="none" xmlns="http://www.w3.org/2000/svg">
<path fill-rule="evenodd" clip-rule="evenodd" d="M15.591 21.2068C19.28 21.2068 22.433 21.7658 22.433 23.9988C22.433 26.2318 19.301 26.8068 15.591 26.8068C11.901 26.8068 8.74902 26.2528 8.74902 24.0188C8.74902 21.7848 11.88 21.2068 15.591 21.2068Z" stroke="#191F28" stroke-width="1.5" stroke-linecap="round" stroke-linejoin="round"/>
<path fill-rule="evenodd" clip-rule="evenodd" d="M15.5911 18.0198C13.1691 18.0198 11.2051 16.0568 11.2051 13.6348C11.2051 11.2128 13.1691 9.24976 15.5911 9.24976C18.0121 9.24976 19.9761 11.2128 19.9761 13.6348C19.9851 16.0478 18.0351 18.0108 15.6221 18.0198H15.5911Z" stroke="#191F28" stroke-width="1.5" stroke-linecap="round" stroke-linejoin="round"/>
<path d="M22.4824 16.8815C24.0834 16.6565 25.3164 15.2825 25.3194 13.6195C25.3194 11.9805 24.1244 10.6205 22.5574 10.3635" stroke="#191F28" stroke-width="1.5" stroke-linecap="round" stroke-linejoin="round"/>
<path d="M24.5947 20.7322C26.1457 20.9632 27.2287 21.5072 27.2287 22.6272C27.2287 23.3982 26.7187 23.8982 25.8947 24.2112" stroke="#191F28" stroke-width="1.5" stroke-linecap="round" stroke-linejoin="round"/>
</svg>
