<svg width="24" height="24" viewBox="0 0 24 24" fill="none" xmlns="http://www.w3.org/2000/svg">
<path d="M18.7542 11.0395H12.961V5.2463C12.961 4.71801 12.5287 4.28577 12.0004 4.28577C11.4721 4.28577 11.0399 4.71801 11.0399 5.2463V11.0395H5.24667C4.71837 11.0395 4.28613 11.4718 4.28613 12.0001C4.28613 12.2642 4.39419 12.5043 4.56829 12.6784C4.74239 12.8525 4.98252 12.9606 5.24667 12.9606H11.0399V18.7538C11.0399 19.018 11.1479 19.2581 11.322 19.4322C11.4961 19.6063 11.7363 19.7143 12.0004 19.7143C12.5287 19.7143 12.961 19.2821 12.961 18.7538V12.9606H18.7542C19.2825 12.9606 19.7147 12.5283 19.7147 12.0001C19.7147 11.4718 19.2825 11.0395 18.7542 11.0395Z" fill="#4E5968"/>
</svg>
