<svg width="32" height="32" viewBox="0 0 32 32" fill="none" xmlns="http://www.w3.org/2000/svg">
<g clip-path="url(#clip0_8032_3124)">
<path d="M25.1667 15.1667H16.8333V6.83333C16.8333 6.61232 16.7455 6.40036 16.5893 6.24408C16.433 6.0878 16.221 6 16 6V6C15.779 6 15.567 6.0878 15.4107 6.24408C15.2545 6.40036 15.1667 6.61232 15.1667 6.83333V15.1667H6.83333C6.61232 15.1667 6.40036 15.2545 6.24408 15.4107C6.0878 15.567 6 15.779 6 16V16C6 16.221 6.0878 16.433 6.24408 16.5893C6.40036 16.7455 6.61232 16.8333 6.83333 16.8333H15.1667V25.1667C15.1667 25.3877 15.2545 25.5996 15.4107 25.7559C15.567 25.9122 15.779 26 16 26C16.221 26 16.433 25.9122 16.5893 25.7559C16.7455 25.5996 16.8333 25.3877 16.8333 25.1667V16.8333H25.1667C25.3877 16.8333 25.5996 16.7455 25.7559 16.5893C25.9122 16.433 26 16.221 26 16C26 15.779 25.9122 15.567 25.7559 15.4107C25.5996 15.2545 25.3877 15.1667 25.1667 15.1667Z" fill="#191F28"/>
</g>
<defs>
<clipPath id="clip0_8032_3124">
<rect width="20" height="20" fill="white" transform="translate(6 6)"/>
</clipPath>
</defs>
</svg>
