<svg width="32" height="32" viewBox="0 0 32 32" fill="none" xmlns="http://www.w3.org/2000/svg">
<path fill-rule="evenodd" clip-rule="evenodd" d="M24.8064 11.6236L24.184 10.5435C23.6574 9.6296 22.4905 9.31432 21.5753 9.83872V9.83872C21.1397 10.0953 20.6198 10.1682 20.1305 10.0411C19.6411 9.91402 19.2224 9.59752 18.9666 9.16137C18.8021 8.88415 18.7137 8.56839 18.7103 8.24604V8.24604C18.7251 7.72922 18.5302 7.2284 18.1698 6.85767C17.8094 6.48694 17.3143 6.27786 16.7973 6.27808H15.5433C15.0367 6.27807 14.5511 6.47991 14.1938 6.83895C13.8364 7.19798 13.6369 7.68459 13.6394 8.19112V8.19112C13.6244 9.23693 12.7722 10.0768 11.7263 10.0767C11.404 10.0734 11.0882 9.98494 10.811 9.82041V9.82041C9.89582 9.29601 8.72887 9.61129 8.20229 10.5252L7.5341 11.6236C7.00817 12.5364 7.31916 13.7026 8.22975 14.2323V14.2323C8.82166 14.574 9.18629 15.2056 9.18629 15.8891C9.18629 16.5725 8.82166 17.2041 8.22975 17.5458V17.5458C7.32031 18.0719 7.00898 19.2353 7.5341 20.1454V20.1454L8.16568 21.2346C8.4124 21.6798 8.82636 22.0083 9.31595 22.1474C9.80554 22.2866 10.3304 22.2249 10.7744 21.976V21.976C11.2108 21.7213 11.7309 21.6516 12.2191 21.7822C12.7072 21.9128 13.123 22.233 13.3739 22.6717C13.5385 22.9489 13.6269 23.2646 13.6302 23.587V23.587C13.6302 24.6435 14.4867 25.5 15.5433 25.5H16.7973C17.8502 25.5001 18.7053 24.6491 18.7103 23.5962V23.5962C18.7079 23.088 18.9086 22.6 19.2679 22.2407C19.6272 21.8814 20.1152 21.6807 20.6233 21.6831C20.9449 21.6917 21.2594 21.7798 21.5387 21.9394V21.9394C22.4515 22.4653 23.6177 22.1544 24.1474 21.2438V21.2438L24.8064 20.1454C25.0615 19.7075 25.1315 19.186 25.001 18.6964C24.8704 18.2067 24.55 17.7894 24.1108 17.5367V17.5367C23.6715 17.284 23.3511 16.8666 23.2206 16.3769C23.09 15.8873 23.16 15.3658 23.4151 14.928C23.581 14.6383 23.8211 14.3982 24.1108 14.2323V14.2323C25.0159 13.7029 25.3262 12.5435 24.8064 11.6328V11.6328V11.6236Z" stroke="#191F28" stroke-width="1.5" stroke-linecap="round" stroke-linejoin="round"/>
<circle cx="16.1752" cy="15.8891" r="2.63616" stroke="#191F28" stroke-width="1.5" stroke-linecap="round" stroke-linejoin="round"/>
</svg>
