<svg width="32" height="32" viewBox="0 0 32 32" fill="none" xmlns="http://www.w3.org/2000/svg">
<path fill-rule="evenodd" clip-rule="evenodd" d="M13.877 19.2062C10.033 19.2062 6.75 19.7872 6.75 22.1152C6.75 24.4432 10.013 25.0452 13.877 25.0452C17.722 25.0452 21.004 24.4632 21.004 22.1362C21.004 19.8092 17.742 19.2062 13.877 19.2062Z" stroke="#191F28" stroke-width="1.5" stroke-linecap="round" stroke-linejoin="round"/>
<path fill-rule="evenodd" clip-rule="evenodd" d="M13.8766 15.8859C16.3996 15.8859 18.4446 13.8409 18.4446 11.3179C18.4446 8.79488 16.3996 6.74988 13.8766 6.74988C11.3546 6.74988 9.3096 8.79488 9.3096 11.3179C9.3006 13.8319 11.3306 15.8769 13.8456 15.8859H13.8766Z" stroke="#191F28" stroke-width="1.5" stroke-linecap="round" stroke-linejoin="round"/>
<path d="M23.2041 12.6691V16.6791" stroke="#191F28" stroke-width="1.5" stroke-linecap="round" stroke-linejoin="round"/>
<path d="M25.2502 14.674H21.1602" stroke="#191F28" stroke-width="1.5" stroke-linecap="round" stroke-linejoin="round"/>
</svg>
