<svg width="133" height="133" viewBox="0 0 133 133" fill="none" xmlns="http://www.w3.org/2000/svg">
<rect x="1" y="1" width="130.923" height="130.923" rx="65.4615" fill="white"/>
<rect x="1" y="1" width="130.923" height="130.923" rx="65.4615" stroke="#E1E1E1" stroke-width="2"/>
<path fill-rule="evenodd" clip-rule="evenodd" d="M66.4099 76.5763C54.7259 76.5763 44.748 78.3428 44.748 85.4177C44.748 92.4925 54.6626 94.3224 66.4099 94.3224C78.0939 94.3224 88.0689 92.553 88.0689 85.481C88.0689 78.409 78.1572 76.5763 66.4099 76.5763Z" stroke="#00AD59" stroke-width="4.53147" stroke-linecap="round" stroke-linejoin="round"/>
<path fill-rule="evenodd" clip-rule="evenodd" d="M66.4095 66.4851C74.077 66.4851 80.2916 60.2677 80.2916 52.6001C80.2916 44.9326 74.077 38.718 66.4095 38.718C58.742 38.718 52.5245 44.9326 52.5245 52.6001C52.4986 60.2418 58.6729 66.4592 66.3117 66.4851H66.4095Z" stroke="#00AD59" stroke-width="4.31568" stroke-linecap="round" stroke-linejoin="round"/>
</svg>
