<svg width="67" height="12" viewBox="0 0 67 12" fill="none" xmlns="http://www.w3.org/2000/svg">
<path opacity="0.35" d="M45 0.502808H61.666C62.8626 0.502808 63.833 1.47318 63.833 2.6698V8.6698C63.8328 9.86627 62.8625 10.8358 61.666 10.8358H45C43.8035 10.8358 42.8332 9.86627 42.833 8.6698V2.6698L42.8438 2.44812C42.9546 1.35546 43.8781 0.502808 45 0.502808Z" stroke="#191F28"/>
<path opacity="0.4" d="M65.333 3.66943V7.66943C66.1377 7.33066 66.661 6.54257 66.661 5.66943C66.661 4.7963 66.1377 4.00821 65.333 3.66943Z" fill="#191F28"/>
<path d="M44.333 3.33614C44.333 2.59976 44.93 2.00281 45.6663 2.00281H60.9997C61.7361 2.00281 62.333 2.59976 62.333 3.33614V8.00281C62.333 8.73919 61.7361 9.33614 60.9997 9.33614H45.6663C44.93 9.33614 44.333 8.73919 44.333 8.00281V3.33614Z" fill="#191F28"/>
<path d="M27.4541 8.40051C28.7297 7.32163 30.5985 7.32163 31.874 8.40051C31.938 8.45853 31.9748 8.54069 31.9766 8.62708C31.9783 8.71353 31.9445 8.79697 31.8828 8.85754L29.8857 10.8732C29.8272 10.9324 29.7473 10.9659 29.6641 10.9659C29.5808 10.9659 29.5009 10.9324 29.4424 10.8732L27.4443 8.85754C27.3827 8.79695 27.3488 8.71346 27.3506 8.62708C27.3524 8.54062 27.39 8.45849 27.4541 8.40051ZM24.7891 5.71106C27.5372 3.15502 31.7929 3.15507 34.541 5.71106C34.603 5.77091 34.6387 5.85346 34.6396 5.93958C34.6405 6.02575 34.6066 6.10887 34.5459 6.17004L33.3916 7.33704C33.2726 7.45614 33.0801 7.45879 32.958 7.3429C32.0556 6.52571 30.8815 6.07332 29.6641 6.07336C28.4474 6.07387 27.2739 6.52623 26.3721 7.3429C26.25 7.45872 26.0574 7.45612 25.9385 7.33704L24.7842 6.17004C24.7235 6.10898 24.6896 6.02567 24.6904 5.93958C24.6914 5.85345 24.7271 5.7709 24.7891 5.71106ZM22.124 3.02942C26.3391 -1.00975 32.9891 -1.01 37.2041 3.02942C37.265 3.08936 37.2992 3.17151 37.2998 3.25696C37.3003 3.34252 37.2663 3.42476 37.2061 3.48547L36.0498 4.65247C35.9307 4.77194 35.738 4.77319 35.6172 4.6554C34.0113 3.12866 31.8799 2.27759 29.6641 2.27747C27.448 2.27746 25.3161 3.12851 23.71 4.6554C23.5892 4.77338 23.3964 4.77216 23.2773 4.65247L22.1211 3.48547C22.0608 3.42471 22.0268 3.34254 22.0273 3.25696C22.028 3.17145 22.063 3.08934 22.124 3.02942Z" fill="#191F28"/>
<path d="M2 7.00305C2.55228 7.00305 3 7.45077 3 8.00305V10.0031C2.99982 10.5552 2.55218 11.0031 2 11.0031H1C0.447824 11.0031 0.000176227 10.5552 0 10.0031V8.00305C0 7.45077 0.447715 7.00305 1 7.00305H2ZM6.66699 5.00305C7.21912 5.00323 7.66699 5.45088 7.66699 6.00305V10.0031C7.66682 10.5551 7.21901 11.0029 6.66699 11.0031H5.66699C5.11482 11.0031 4.66717 10.5552 4.66699 10.0031V6.00305C4.66699 5.45077 5.11471 5.00305 5.66699 5.00305H6.66699ZM11.333 2.66907C11.8852 2.66907 12.3328 3.11693 12.333 3.66907V10.0031C12.3328 10.5552 11.8852 11.0031 11.333 11.0031H10.333C9.78099 11.0029 9.33318 10.5551 9.33301 10.0031V3.66907C9.33318 3.11704 9.78099 2.66925 10.333 2.66907H11.333ZM16 0.33606C16.5523 0.33606 17 0.783775 17 1.33606V10.0031C16.9998 10.5552 16.5522 11.0031 16 11.0031H15C14.4478 11.0031 14.0002 10.5552 14 10.0031V1.33606C14 0.783775 14.4477 0.33606 15 0.33606H16Z" fill="#191F28"/>
</svg>
