<svg width="375" height="50" viewBox="0 0 375 50" fill="none" xmlns="http://www.w3.org/2000/svg">
<g clip-path="url(#clip0_98_8128)">
<path d="M96 -2H279C277.224 -1.39188 276.013 0.254866 275.961 2.13096L275.922 3.5618C275.922 17.0587 264.981 28 251.484 28H123.516C110.019 28 99.078 17.0587 99.078 3.5618L99.0385 2.13097C98.9868 0.254869 97.7756 -1.39188 96 -2Z" fill="#191F28"/>
<path opacity="0.35" d="M338.667 17.8334H355.333C356.53 17.8334 357.5 18.8037 357.5 20.0004V26.0004C357.5 27.1968 356.53 28.1664 355.333 28.1664H338.667C337.47 28.1664 336.5 27.1968 336.5 26.0004V20.0004L336.511 19.7787C336.622 18.686 337.545 17.8334 338.667 17.8334Z" stroke="#191F28"/>
<path opacity="0.4" d="M359 21V25C359.805 24.6612 360.328 23.8731 360.328 23C360.328 22.1269 359.805 21.3388 359 21Z" fill="#191F28"/>
<path d="M338 20.6667C338 19.9303 338.597 19.3334 339.333 19.3334H354.667C355.403 19.3334 356 19.9303 356 20.6667V25.3334C356 26.0698 355.403 26.6667 354.667 26.6667H339.333C338.597 26.6667 338 26.0698 338 25.3334V20.6667Z" fill="#191F28"/>
<path d="M321.121 25.7311C322.397 24.6522 324.265 24.6522 325.541 25.7311C325.605 25.7891 325.642 25.8713 325.644 25.9576C325.645 26.0441 325.612 26.1275 325.55 26.1881L323.553 28.2037C323.494 28.2629 323.414 28.2965 323.331 28.2965C323.248 28.2965 323.168 28.2629 323.109 28.2037L321.111 26.1881C321.05 26.1275 321.016 26.044 321.018 25.9576C321.019 25.8712 321.057 25.7891 321.121 25.7311ZM318.456 23.0416C321.204 20.4856 325.46 20.4856 328.208 23.0416C328.27 23.1015 328.306 23.184 328.307 23.2701C328.308 23.3563 328.274 23.4394 328.213 23.5006L327.059 24.6676C326.94 24.7867 326.747 24.7894 326.625 24.6735C325.723 23.8563 324.548 23.4039 323.331 23.4039C322.114 23.4044 320.941 23.8568 320.039 24.6735C319.917 24.7893 319.724 24.7867 319.605 24.6676L318.451 23.5006C318.39 23.4395 318.357 23.3562 318.357 23.2701C318.358 23.184 318.394 23.1015 318.456 23.0416ZM315.791 20.36C320.006 16.3208 326.656 16.3206 330.871 20.36C330.932 20.4199 330.966 20.5021 330.967 20.5875C330.967 20.6731 330.933 20.7553 330.873 20.816L329.717 21.983C329.598 22.1025 329.405 22.1038 329.284 21.986C327.678 20.4592 325.547 19.6082 323.331 19.608C321.115 19.608 318.983 20.4591 317.377 21.986C317.256 22.104 317.063 22.1027 316.944 21.983L315.788 20.816C315.728 20.7553 315.694 20.6731 315.694 20.5875C315.695 20.502 315.73 20.4199 315.791 20.36Z" fill="#191F28"/>
<path d="M295.667 24.3336C296.219 24.3336 296.667 24.7813 296.667 25.3336V27.3336C296.667 27.8858 296.219 28.3336 295.667 28.3336H294.667C294.115 28.3336 293.667 27.8858 293.667 27.3336V25.3336C293.667 24.7813 294.115 24.3336 294.667 24.3336H295.667ZM300.334 22.3336C300.886 22.3338 301.334 22.7814 301.334 23.3336V27.3336C301.334 27.8856 300.886 28.3334 300.334 28.3336H299.334C298.782 28.3336 298.334 27.8858 298.334 27.3336V23.3336C298.334 22.7813 298.782 22.3336 299.334 22.3336H300.334ZM305 19.9996C305.552 19.9996 306 20.4475 306 20.9996V27.3336C306 27.8858 305.552 28.3336 305 28.3336H304C303.448 28.3334 303 27.8856 303 27.3336V20.9996C303 20.4476 303.448 19.9998 304 19.9996H305ZM309.667 17.6666C310.219 17.6666 310.667 18.1143 310.667 18.6666V27.3336C310.667 27.8858 310.219 28.3336 309.667 28.3336H308.667C308.115 28.3336 307.667 27.8858 307.667 27.3336V18.6666C307.667 18.1143 308.115 17.6666 308.667 17.6666H309.667Z" fill="#191F28"/>
<path d="M37.3203 28.2563C40.0083 28.2563 41.605 26.1543 41.605 22.5947C41.605 21.2544 41.3486 20.1265 40.8579 19.2549C40.1475 17.8999 38.9243 17.1675 37.3789 17.1675C35.0791 17.1675 33.4531 18.7129 33.4531 20.8809C33.4531 22.917 34.918 24.3965 36.9321 24.3965C38.1699 24.3965 39.1733 23.8179 39.6714 22.8145H39.6934C39.6934 22.8145 39.7227 22.8145 39.73 22.8145C39.7446 22.8145 39.7959 22.8145 39.7959 22.8145C39.7959 25.2314 38.8804 26.6743 37.335 26.6743C36.4268 26.6743 35.7236 26.1763 35.4819 25.3779H33.5996C33.9146 27.1138 35.3867 28.2563 37.3203 28.2563ZM37.3862 22.895C36.1704 22.895 35.3062 22.0308 35.3062 20.8223C35.3062 19.6431 36.2144 18.7422 37.3936 18.7422C38.5728 18.7422 39.481 19.6577 39.481 20.8516C39.481 22.0308 38.5947 22.895 37.3862 22.895Z" fill="#191F28"/>
<path d="M44.6961 28.1538C45.3919 28.1538 45.868 27.6558 45.868 26.9966C45.868 26.3301 45.3919 25.8394 44.6961 25.8394C44.0076 25.8394 43.5242 26.3301 43.5242 26.9966C43.5242 27.6558 44.0076 28.1538 44.6961 28.1538ZM44.6961 22.6606C45.3919 22.6606 45.868 22.1699 45.868 21.5107C45.868 20.8442 45.3919 20.3535 44.6961 20.3535C44.0076 20.3535 43.5242 20.8442 43.5242 21.5107C43.5242 22.1699 44.0076 22.6606 44.6961 22.6606Z" fill="#191F28"/>
<path d="M52.7237 28H54.5328V26.0298H55.961V24.4331H54.5328V17.4312H51.8668C49.9991 20.2437 48.5123 22.5947 47.5602 24.3452V26.0298H52.7237V28ZM49.3106 24.3672C50.5411 22.1992 51.6397 20.4634 52.6505 18.9692H52.753V24.4771H49.3106V24.3672Z" fill="#191F28"/>
<path d="M59.9896 28H61.8793V17.4312H59.997L57.2357 19.3647V21.1812L59.8651 19.3354H59.9896V28Z" fill="#191F28"/>
</g>
<defs>
<clipPath id="clip0_98_8128">
<rect width="375" height="50" fill="white"/>
</clipPath>
</defs>
</svg>
