<svg width="32" height="32" viewBox="0 0 32 32" fill="none" xmlns="http://www.w3.org/2000/svg">
<path opacity="0.4" d="M9.47987 7.94669L21.5065 3.93336C26.9065 2.13336 29.8399 5.08002 28.0532 10.48L24.0399 22.5067C21.3465 30.6 16.9199 30.6 14.2265 22.5067L13.0399 18.9334L9.46654 17.7467C1.38654 15.0667 1.38654 10.6534 9.47987 7.94669Z" fill="#171717"/>
<path d="M16.1602 15.5067L21.2402 10.4133L16.1602 15.5067Z" fill="#171717"/>
<path d="M16.1602 16.5067C15.9069 16.5067 15.6536 16.4134 15.4536 16.2134C15.0669 15.8267 15.0669 15.1867 15.4536 14.8L20.5202 9.70669C20.9069 9.32002 21.5469 9.32002 21.9336 9.70669C22.3202 10.0934 22.3202 10.7334 21.9336 11.12L16.8669 16.2134C16.6669 16.4 16.4136 16.5067 16.1602 16.5067Z" fill="#171717"/>
</svg>
