<svg width="24" height="24" viewBox="0 0 24 24" fill="none" xmlns="http://www.w3.org/2000/svg">
<path d="M14.0004 8C14.0004 10.2091 12.2095 12 10.0004 12C7.79122 12 6.00036 10.2091 6.00036 8C6.00036 5.79086 7.79122 4 10.0004 4C12.2095 4 14.0004 5.79086 14.0004 8Z" fill="#1A1A1A"/>
<path d="M11.1432 13C14.343 13 17.0309 15.5569 17.7876 19.015C18.0238 20.094 17.1049 21 16.0004 21H4.00036C2.89579 21 1.97697 20.094 2.2131 19.015C2.96983 15.5569 5.65772 13 8.85751 13H11.1432Z" fill="#1A1A1A"/>
<path d="M19.0013 8C19.443 8 19.8009 8.35816 19.8011 8.7998V10.4004H21.4017C21.8434 10.4006 22.2015 10.7585 22.2015 11.2002C22.2015 11.6419 21.8434 11.9998 21.4017 12H19.8011V13.6006C19.8009 14.0422 19.443 14.4004 19.0013 14.4004C18.5596 14.4004 18.2017 14.0422 18.2015 13.6006V12H16.6009C16.1593 11.9998 15.8011 11.6419 15.8011 11.2002C15.8011 10.7585 16.1593 10.4006 16.6009 10.4004H18.2015V8.7998C18.2017 8.35816 18.5596 8 19.0013 8Z" fill="#1A1A1A"/>
</svg>
