<svg width="24" height="24" viewBox="0 0 24 24" fill="none" xmlns="http://www.w3.org/2000/svg">
<path d="M7.5 3C8.05 3 8.5 3.45 8.5 4C8.5 5.5 8.70031 6.45031 9.07031 7.57031C9.17164 7.89316 9.11124 8.2501 8.88144 8.52323C8.84272 8.56925 8.80311 8.61473 8.76892 8.6642L7.83909 10.0094C7.63019 10.3116 7.60178 10.7053 7.77873 11.0273C9.06993 13.3766 10.6211 14.9285 12.9697 16.2276C13.2932 16.4065 13.6896 16.3778 13.9929 16.1666L15.348 15.223C15.3894 15.1942 15.428 15.1616 15.4668 15.1294C15.6564 14.9722 15.8842 14.8896 16.1201 14.8896C16.22 14.8897 16.3298 14.9005 16.4297 14.9404C17.5497 15.3104 18.76 15.5098 20 15.5098C20.5499 15.5098 20.9999 15.9599 21 16.5098V19C21 20 20 21 19 21C9.61 21 3 14.39 3 5C3 3.5 4 3 5 3H7.5Z" fill="#1A1A1A"/>
</svg>
