<svg width="24" height="24" viewBox="0 0 24 24" fill="none" xmlns="http://www.w3.org/2000/svg">
<path d="M14.751 3C15.5927 3.00021 16.3938 3.33947 16.9482 3.93164L18.2139 6.28516C18.2386 6.31156 18.275 6.32612 18.3125 6.32617C20.4527 6.32623 22.1875 7.94917 22.1875 9.9502V16C22.1875 18.209 20.3801 19.9998 18.1504 20H5.94531C3.7664 19.9999 2 18.3487 2 16.3115V9.9502C2 7.94917 3.73478 6.32623 5.875 6.32617C5.91251 6.32612 5.94893 6.31156 5.97363 6.28516L7.23926 3.93164C7.79367 3.33947 8.59479 3.00021 9.43652 3H14.751ZM12.0938 8C9.45314 8 7.3125 10.1406 7.3125 12.7812C7.3125 15.4219 9.45314 17.5625 12.0938 17.5625C14.7344 17.5625 16.875 15.4219 16.875 12.7812C16.875 10.1406 14.7344 8 12.0938 8ZM12.0938 9.7998C13.7402 9.7998 15.0752 11.1348 15.0752 12.7812C15.0752 14.4277 13.7402 15.7627 12.0938 15.7627C10.4473 15.7627 9.1123 14.4277 9.1123 12.7812C9.1123 11.1348 10.4473 9.7998 12.0938 9.7998Z" fill="#1A1A1A"/>
</svg>
