<svg width="24" height="24" viewBox="0 0 24 24" fill="none" xmlns="http://www.w3.org/2000/svg">
<path fill-rule="evenodd" clip-rule="evenodd" d="M20.3442 3.5044C21.6281 4.78824 21.6091 6.88881 20.3018 8.19628L8.82257 19.6755C8.59303 19.905 8.29529 20.0502 7.99229 20.0805L3.92423 20.4874L3.80085 20.4867C3.56436 20.46 3.38869 20.2843 3.36194 20.0478L3.36121 19.9244L3.76815 15.8564C3.79842 15.5534 3.9436 15.2556 4.17314 15.0261L15.6524 3.54685C16.9598 2.23959 19.0604 2.22056 20.3442 3.5044ZM14.2478 7.27611L5.51509 16.0088L5.25646 18.5922L7.83981 18.3336L16.5725 9.60082L14.2478 7.27611ZM18.9986 4.85006C18.2122 4.06368 17.2221 4.30203 16.8147 4.7092L15.5935 5.93046L17.9182 8.25517L19.1394 7.03392C19.5466 6.6265 19.785 5.63644 18.9986 4.85006Z" fill="#1A1A1A"/>
</svg>
