<svg width="24" height="24" viewBox="0 0 24 24" fill="none" xmlns="http://www.w3.org/2000/svg">
<path d="M15.127 13.7812C15.2477 13.2993 15.7367 13.0064 16.2188 13.127C16.7007 13.2477 16.9936 13.7367 16.873 14.2188C16.2519 16.7023 14.0276 17.9004 12 17.9004C9.97244 17.9004 7.74808 16.7023 7.12695 14.2188C7.00644 13.7367 7.29931 13.2477 7.78125 13.127C8.26331 13.0064 8.7523 13.2993 8.87305 13.7812C9.25208 15.2974 10.6133 16.0996 12 16.0996C13.3867 16.0996 14.7479 15.2974 15.127 13.7812Z" fill="currentColor"/>
<path d="M9.25 8C9.94036 8 10.5 8.55964 10.5 9.25C10.5 9.94036 9.94036 10.5 9.25 10.5C8.55964 10.5 8 9.94036 8 9.25C8 8.55964 8.55964 8 9.25 8Z" fill="currentColor"/>
<path d="M14.75 8C15.4404 8 16 8.55964 16 9.25C16 9.94036 15.4404 10.5 14.75 10.5C14.0596 10.5 13.5 9.94036 13.5 9.25C13.5 8.55964 14.0596 8 14.75 8Z" fill="currentColor"/>
<path fill-rule="evenodd" clip-rule="evenodd" d="M12 2C17.5228 2 22 6.47715 22 12C22 17.5228 17.5228 22 12 22C6.47715 22 2 17.5228 2 12C2 6.47715 6.47715 2 12 2ZM12 3.7998C7.47126 3.7998 3.7998 7.47126 3.7998 12C3.7998 16.5287 7.47126 20.2002 12 20.2002C16.5287 20.2002 20.2002 16.5287 20.2002 12C20.2002 7.47126 16.5287 3.7998 12 3.7998Z" fill="currentColor"/>
</svg>
