<svg width="24" height="24" viewBox="0 0 24 24" fill="none" xmlns="http://www.w3.org/2000/svg">
<path d="M19.084 3.84593C16.7131 1.47537 12.9581 1.36868 10.6885 3.63792L3.70905 10.6165C3.3175 11.008 3.31759 11.6428 3.70925 12.0342C4.1007 12.4254 4.73512 12.4253 5.12644 12.0339L12.1055 5.05491C13.6088 3.55188 16.123 3.606 17.7236 5.20628C19.3242 6.80688 19.3781 9.32096 17.875 10.8244L10.3291 18.3703C9.42228 19.2772 7.89665 19.249 6.92383 18.2766C5.95126 17.3038 5.92231 15.7782 6.8291 14.8713L13.6562 8.04319C13.9666 7.73312 14.5038 7.7368 14.8486 8.08128C15.1934 8.42609 15.1969 8.9632 14.8867 9.27366L8.62649 15.5339C8.23514 15.9252 8.23504 16.5597 8.62625 16.9512C9.01763 17.3428 9.65243 17.343 10.044 16.9515L16.3047 10.6916C17.3811 9.61496 17.325 7.83504 16.21 6.71995C15.0949 5.60519 13.3158 5.54992 12.2393 6.6262L5.41113 13.4533C3.73816 15.1264 3.81978 17.8939 5.5625 19.6369C7.30555 21.38 10.0729 21.4614 11.7461 19.7883L19.293 12.2424C21.5623 9.97271 21.4549 6.2168 19.084 3.84593Z" fill="#1A1A1A"/>
</svg>
