<svg width="16" height="16" viewBox="0 0 16 16" fill="none" xmlns="http://www.w3.org/2000/svg">
<path d="M13.6326 13.494C13.434 13.69 13.1146 13.69 12.916 13.494L11.7143 12.3075H3.47788C3.25814 12.3075 3.08 12.1293 3.08 11.9096C3.08 11.8032 3.12262 11.7012 3.19834 11.6265L4.22286 10.615V7.2299C4.22286 6.58674 4.38857 5.94922 4.69714 5.37941L2.37034 3.08214C2.16682 2.8812 2.16746 2.55246 2.37177 2.35232C2.57135 2.15681 2.89085 2.15747 3.08961 2.35381L13.6326 12.7683C13.8348 12.968 13.8347 13.2943 13.6326 13.494ZM12.2229 9.93794V7.2299C12.2229 5.48096 11.0629 3.94076 9.36572 3.44429V3.28068C9.36572 2.98142 9.24531 2.69442 9.03098 2.48281C8.81665 2.27121 8.52596 2.15233 8.22286 2.15233C7.91975 2.15233 7.62906 2.27121 7.41474 2.48281C7.20041 2.69442 7.08 2.98142 7.08 3.28068V3.44429C6.73143 3.54584 6.39429 3.69817 6.08571 3.89563L12.2229 9.93794ZM8.22286 14C8.52596 14 8.81665 13.8811 9.03098 13.6695C9.24531 13.4579 9.36572 13.1709 9.36572 12.8717H7.08C7.08 13.1709 7.20041 13.4579 7.41474 13.6695C7.62906 13.8811 7.91975 14 8.22286 14Z" fill="#79797B"/>
</svg>
