<svg width="24" height="24" viewBox="0 0 24 24" fill="none" xmlns="http://www.w3.org/2000/svg">
<path d="M12 22V15L19 12V18.8235L12 22Z" fill="#FFE000"/>
<path d="M19 18.0733V12.8358C18.9997 12.6062 18.9277 12.3807 18.7912 12.1819C18.6547 11.9831 18.4585 11.818 18.2222 11.7032L12.7778 10.1754C12.5413 10.0605 12.2731 10 12 10C11.7269 10 11.4587 10.0605 11.2222 10.1754L5.77778 11.7032C5.54154 11.818 5.34532 11.9831 5.2088 12.1819C5.07229 12.3807 5.00028 12.6062 5 12.8358V18.0733C5.00028 18.3029 5.07229 18.5284 5.2088 18.7272C5.34532 18.926 5.54154 19.0911 5.77778 19.2059L11.2222 21.8246C11.4587 21.9395 11.7269 22 12 22C12.2731 22 12.5413 21.9395 12.7778 21.8246L18.2222 19.2059C18.4585 19.0911 18.6547 18.926 18.7912 18.7272C18.9277 18.5284 18.9997 18.3029 19 18.0733Z" stroke="#191919" stroke-width="1.5" stroke-linecap="round" stroke-linejoin="round"/>
<path d="M5.5 12L12 15L18.5 12" stroke="#191919" stroke-width="1.5" stroke-linecap="round" stroke-linejoin="round"/>
<path d="M12 22V15" stroke="#191919" stroke-width="1.5" stroke-linecap="round" stroke-linejoin="round"/>
<path d="M17.0747 3.88407C16.7815 3.6038 16.4333 3.38146 16.0502 3.22977C15.667 3.07808 15.2563 3 14.8415 3C14.4268 3 14.0161 3.07808 13.6329 3.22977C13.2497 3.38146 12.9016 3.6038 12.6084 3.88407L11.9998 4.46547L11.3913 3.88407C10.7991 3.3182 9.99576 3.00029 9.15816 3.00029C8.32057 3.00029 7.51728 3.3182 6.92501 3.88407C6.33273 4.44995 6 5.21744 6 6.0177C6 6.81797 6.33273 7.58546 6.92501 8.15134L7.53353 8.73274L11.9998 12L16.4662 8.73274L17.0747 8.15134C17.368 7.87119 17.6007 7.53857 17.7595 7.17247C17.9183 6.80638 18 6.41398 18 6.0177C18 5.62143 17.9183 5.22903 17.7595 4.86294C17.6007 4.49684 17.368 4.16422 17.0747 3.88407Z" fill="#FF4300" stroke="#191919" stroke-width="1.5" stroke-linecap="round" stroke-linejoin="round"/>
</svg>
