<svg width="102" height="102" viewBox="0 0 102 102" fill="none" xmlns="http://www.w3.org/2000/svg">
<path d="M51 8.50004C26.3543 8.50004 6.375 24.6734 6.375 44.625C6.375 57.3538 14.5265 68.5207 26.8132 74.9552L22.0979 90.6738C21.811 91.6279 22.8756 92.4163 23.7044 91.8638L41.6011 79.9319C44.6335 80.4589 47.7743 80.75 51 80.75C75.6458 80.75 95.625 64.5767 95.625 44.625C95.625 24.6734 75.6458 8.50004 51 8.50004Z" fill="#421D1D"/>
<path d="M31.875 38.25H19.125C17.952 38.25 17 37.298 17 36.125C17 34.952 17.952 34 19.125 34H31.875C33.048 34 34 34.952 34 36.125C34 37.298 33.048 38.25 31.875 38.25Z" fill="#FFE000"/>
<path d="M53.125 55.25V36.125C53.125 34.952 54.077 34 55.25 34C56.423 34 57.375 34.952 57.375 36.125V55.25C57.375 56.423 56.423 57.375 55.25 57.375C54.077 57.375 53.125 56.423 53.125 55.25Z" fill="#FFE000"/>
<path d="M68 55.25V36.125C68 34.952 68.952 34 70.125 34C71.298 34 72.25 34.952 72.25 36.125V55.25C72.25 56.423 71.298 57.375 70.125 57.375C68.952 57.375 68 56.423 68 55.25Z" fill="#FFE000"/>
<path d="M69.3196 45.0649L79.7618 34.6226C80.5927 33.7918 81.9378 33.7918 82.7666 34.6226C83.5975 35.4535 83.5975 36.7986 82.7666 37.6274L72.3243 48.0696C71.4935 48.9005 70.1483 48.9005 69.3196 48.0696C68.4908 47.2409 68.4908 45.8958 69.3196 45.0649Z" fill="#FFE000"/>
<path d="M76.6658 43.9132L84.5453 53.9368C85.2699 54.859 85.1106 56.1957 84.1883 56.9203C83.2661 57.6449 81.9294 57.4855 81.2048 56.5633L73.3253 46.5397C72.6007 45.6174 72.7601 44.2808 73.6823 43.5562C74.6046 42.8315 75.9412 42.9909 76.6658 43.9132Z" fill="#FFE000"/>
<path d="M63.75 57.375H55.25C54.077 57.375 53.125 56.423 53.125 55.25C53.125 54.077 54.077 53.125 55.25 53.125H63.75C64.923 53.125 65.875 54.077 65.875 55.25C65.875 56.423 64.923 57.375 63.75 57.375Z" fill="#FFE000"/>
<path d="M50.8576 54.4893L44.013 35.3643C43.7049 34.5589 42.9569 34.0659 42.1472 34.0277C41.9114 34.0171 40.9997 34.0213 40.7851 34.0256C39.9521 34.0404 39.1765 34.5377 38.8599 35.3643L32.0152 54.4893C31.5945 55.5858 32.1427 56.8141 33.2392 57.2348C34.3357 57.6556 35.564 57.1073 35.9847 56.0108L37.0175 53.1251H45.8575L46.8902 56.0108C47.311 57.1073 48.5392 57.6534 49.6357 57.2348C50.7322 56.8162 51.2784 55.5837 50.8576 54.4893ZM38.539 48.8751L41.4375 40.7746L44.336 48.8751H38.539Z" fill="#FFE000"/>
<path d="M27.625 38.25H23.375V55.25C23.375 56.423 24.327 57.375 25.5 57.375C26.673 57.375 27.625 56.423 27.625 55.25V38.25Z" fill="#FFE000"/>
</svg>
