<svg width="16" height="16" viewBox="0 0 16 16" fill="none" xmlns="http://www.w3.org/2000/svg">
<path d="M4.66555 3.64706C4.66555 3.28915 4.96347 3 5.33223 3H10.6657C11.0344 3 11.3324 3.28915 11.3324 3.64706C11.3324 4.00496 11.0344 4.29412 10.6657 4.29412H10.0511L10.2657 7.0057C11.0386 7.43438 11.6365 8.14614 11.8949 9.02169L11.974 9.29265C12.0324 9.48879 11.9907 9.69706 11.8657 9.86085C11.7407 10.0246 11.5407 10.1176 11.3324 10.1176H4.66555C4.45721 10.1176 4.25929 10.0226 4.13429 9.86085C4.00928 9.69908 3.96762 9.48879 4.02595 9.29265L4.10304 9.02169C4.36138 8.14614 4.95722 7.43438 5.73224 7.0057L5.94683 4.29412H5.33223C4.96347 4.29412 4.66555 4.00496 4.66555 3.64706ZM7.33228 11.0882H8.66564V13.3529C8.66564 13.7108 8.36772 14 7.99896 14C7.6302 14 7.33228 13.7108 7.33228 13.3529V11.0882Z" fill="#79797B"/>
</svg>
