<svg width="24" height="24" viewBox="0 0 24 24" fill="none" xmlns="http://www.w3.org/2000/svg">
<path d="M8.00195 10.002C8.55424 10.002 9.00195 10.4497 9.00195 11.002C9.00195 11.5542 8.55424 12.002 8.00195 12.002C7.44967 12.002 7.00195 11.5542 7.00195 11.002C7.00195 10.4497 7.44967 10.002 8.00195 10.002Z" fill="currentColor"/>
<path d="M12.002 10.002C12.5542 10.002 13.002 10.4497 13.002 11.002C13.002 11.5542 12.5542 12.002 12.002 12.002C11.4497 12.002 11.002 11.5542 11.002 11.002C11.002 10.4497 11.4497 10.002 12.002 10.002Z" fill="currentColor"/>
<path d="M16.002 10.002C16.5542 10.002 17.002 10.4497 17.002 11.002C17.002 11.5542 16.5542 12.002 16.002 12.002C15.4497 12.002 15.002 11.5542 15.002 11.002C15.002 10.4497 15.4497 10.002 16.002 10.002Z" fill="currentColor"/>
<path fill-rule="evenodd" clip-rule="evenodd" d="M12.002 3.10156C17.2863 3.10156 21.9023 6.61493 21.9023 11.3174C21.9022 16.0197 17.2862 19.5322 12.002 19.5322C10.575 19.5322 9.21715 19.277 7.9873 18.8242L5.5498 20.2158C4.48813 20.8212 3.21475 19.8708 3.49316 18.6807L4.06543 16.2314C2.84794 14.8783 2.10164 13.1806 2.10156 11.3174C2.10156 6.61493 6.71764 3.10156 12.002 3.10156ZM12.002 4.90234C7.34514 4.90234 3.90234 7.93974 3.90234 11.3174C3.90242 12.7312 4.48367 14.0591 5.51074 15.1475C5.82513 15.4806 5.97772 15.9625 5.86523 16.4434L5.4541 18.1973L7.25293 17.1719C7.58521 16.9823 7.96845 16.943 8.31738 17.0361L8.46484 17.084L8.87109 17.2305C9.83232 17.552 10.8891 17.7324 12.002 17.7324C16.6586 17.7324 20.1014 14.6949 20.1016 11.3174C20.1016 7.93974 16.6588 4.90234 12.002 4.90234Z" fill="currentColor"/>
</svg>
