<svg width="24" height="24" viewBox="0 0 24 24" fill="none" xmlns="http://www.w3.org/2000/svg">
<path fill-rule="evenodd" clip-rule="evenodd" d="M9.56905 12.5408C10.6371 12.6491 11.4706 13.5505 11.4706 14.6471V18.8824L11.4592 19.0985C11.3509 20.1665 10.4495 21 9.35294 21H5.11765C3.9481 21 3 20.0519 3 18.8824V14.6471C3 13.4775 3.9481 12.5294 5.11765 12.5294H9.35294L9.56905 12.5408ZM5.11765 14.1176C4.82526 14.1176 4.58824 14.3547 4.58824 14.6471V18.8824C4.58824 19.1747 4.82526 19.4118 5.11765 19.4118H9.35294C9.64533 19.4118 9.88235 19.1747 9.88235 18.8824V14.6471C9.88235 14.3547 9.64533 14.1176 9.35294 14.1176H5.11765Z" fill="#1A1A1A"/>
<path d="M15.1765 17.8235C15.4686 17.8237 15.7057 18.0608 15.7059 18.3529V19.4118C15.7059 19.7041 15.4687 19.941 15.1765 19.9412H14.1176C13.8253 19.9412 13.5882 19.7042 13.5882 19.4118V18.3529C13.5884 18.0607 13.8254 17.8235 14.1176 17.8235H15.1765Z" fill="#1A1A1A"/>
<path d="M19.4118 17.8235C19.7041 17.8235 19.941 18.0607 19.9412 18.3529V19.4118C19.9412 19.7042 19.7042 19.9412 19.4118 19.9412H18.3529C18.0607 19.941 17.8235 19.7041 17.8235 19.4118V18.3529C17.8237 18.0608 18.0608 17.8237 18.3529 17.8235H19.4118Z" fill="#1A1A1A"/>
<path d="M17.2921 15.7038C17.5843 15.7038 17.8212 15.941 17.8215 16.2332V17.2921C17.8215 17.5844 17.5844 17.8215 17.2921 17.8215H16.2332C15.941 17.8212 15.7038 17.5843 15.7038 17.2921V16.2332C15.7041 15.9412 15.9412 15.7041 16.2332 15.7038H17.2921Z" fill="#1A1A1A"/>
<path d="M15.1765 13.5882C15.4687 13.5884 15.7059 13.8254 15.7059 14.1176V15.1765C15.7057 15.4686 15.4686 15.7057 15.1765 15.7059H14.1176C13.8254 15.7059 13.5884 15.4687 13.5882 15.1765V14.1176C13.5882 13.8253 13.8253 13.5882 14.1176 13.5882H15.1765Z" fill="#1A1A1A"/>
<path d="M19.4118 13.5882C19.7042 13.5882 19.9412 13.8253 19.9412 14.1176V15.1765C19.941 15.4687 19.7041 15.7059 19.4118 15.7059H18.3529C18.0608 15.7057 17.8237 15.4686 17.8235 15.1765V14.1176C17.8235 13.8254 18.0607 13.5884 18.3529 13.5882H19.4118Z" fill="#1A1A1A"/>
<path fill-rule="evenodd" clip-rule="evenodd" d="M9.56905 3.01137C10.6371 3.11965 11.4706 4.02108 11.4706 5.11765V9.35294L11.4592 9.56905C11.3509 10.6371 10.4495 11.4706 9.35294 11.4706H5.11765C3.9481 11.4706 3 10.5225 3 9.35294V5.11765C3 3.9481 3.9481 3 5.11765 3H9.35294L9.56905 3.01137ZM5.11765 4.58824C4.82526 4.58824 4.58824 4.82526 4.58824 5.11765V9.35294C4.58824 9.64533 4.82526 9.88235 5.11765 9.88235H9.35294C9.64533 9.88235 9.88235 9.64533 9.88235 9.35294V5.11765C9.88235 4.82526 9.64533 4.58824 9.35294 4.58824H5.11765Z" fill="#1A1A1A"/>
<path fill-rule="evenodd" clip-rule="evenodd" d="M19.0985 3.01137C20.1665 3.11965 21 4.02108 21 5.11765V9.35294L20.9886 9.56905C20.8803 10.6371 19.9789 11.4706 18.8824 11.4706H14.6471C13.4775 11.4706 12.5294 10.5225 12.5294 9.35294V5.11765C12.5294 3.9481 13.4775 3 14.6471 3H18.8824L19.0985 3.01137ZM14.6471 4.58824C14.3547 4.58824 14.1176 4.82526 14.1176 5.11765V9.35294C14.1176 9.64533 14.3547 9.88235 14.6471 9.88235H18.8824C19.1747 9.88235 19.4118 9.64533 19.4118 9.35294V5.11765C19.4118 4.82526 19.1747 4.58824 18.8824 4.58824H14.6471Z" fill="#1A1A1A"/>
</svg>
