<svg width="27" height="29" viewBox="0 0 27 29" fill="none" xmlns="http://www.w3.org/2000/svg">
<path d="M13.5 0C20.9558 0 27 6.05746 27 13.5293C26.9998 21.001 20.9557 27.0576 13.5 27.0576C12.1009 27.0576 10.7515 26.8451 9.48242 26.4492C9.38722 26.5752 9.26507 26.6864 9.11133 26.7676L5.12695 28.8682C4.31624 29.2954 3.36315 28.6242 3.48926 27.7148L4.10938 23.2471V23.2432C1.57709 20.7841 9.18744e-05 17.3421 0 13.5293C0 6.05746 6.04416 0 13.5 0ZM13.5 7C12.9018 7 12.4172 7.48485 12.417 8.08301V12.417H8.08301C7.48485 12.4172 7 12.9018 7 13.5C7 14.0982 7.48485 14.5828 8.08301 14.583H12.417V18.917C12.4172 19.5152 12.9018 20 13.5 20C14.0982 20 14.5828 19.5152 14.583 18.917V14.583H18.917C19.5152 14.5828 20 14.0982 20 13.5C20 12.9018 19.5152 12.4172 18.917 12.417H14.583V8.08301C14.5828 7.48485 14.0982 7 13.5 7Z" fill="white"/>
</svg>
