<svg width="24" height="24" viewBox="0 0 24 24" fill="none" xmlns="http://www.w3.org/2000/svg">
<path fill-rule="evenodd" clip-rule="evenodd" d="M4.85236 4.85236C7.35863 2.34609 11.4644 2.38842 14.0229 4.9469C16.3567 7.28065 16.5959 10.901 14.7179 13.4213L20.7219 19.4253C21.0874 19.7908 21.0934 20.3773 20.7354 20.7354C20.3773 21.0934 19.7908 21.0874 19.4253 20.7219L13.4213 14.7179C10.901 16.5959 7.28065 16.3567 4.9469 14.0229C2.38842 11.4644 2.34609 7.35863 4.85236 4.85236ZM6.17594 6.17594C4.38575 7.96614 4.41598 10.8988 6.24347 12.7263C8.07096 14.5538 11.0037 14.5841 12.7939 12.7939C14.5841 11.0037 14.5538 8.07096 12.7263 6.24347C10.8988 4.41598 7.96614 4.38575 6.17594 6.17594Z" fill="currentColor"/>
</svg>
