<svg width="24" height="24" viewBox="0 0 24 24" fill="none" xmlns="http://www.w3.org/2000/svg">
<path d="M11.9004 14.9004C14.1791 14.9004 16.161 16.1709 17.1768 18.042C16.7187 18.4358 16.2172 18.7799 15.6787 19.0645C14.9973 17.6649 13.5616 16.7002 11.9004 16.7002C10.239 16.7002 8.80239 17.6647 8.12109 19.0645C7.58265 18.7798 7.081 18.4359 6.62305 18.042C7.63878 16.1706 9.62147 14.9004 11.9004 14.9004Z" fill="currentColor"/>
<path fill-rule="evenodd" clip-rule="evenodd" d="M12 6C14.2091 6 16 7.79086 16 10C16 12.2091 14.2091 14 12 14C9.79086 14 8 12.2091 8 10C8 7.79086 9.79086 6 12 6ZM12 7.7998C10.785 7.7998 9.7998 8.78497 9.7998 10C9.7998 11.215 10.785 12.2002 12 12.2002C13.215 12.2002 14.2002 11.215 14.2002 10C14.2002 8.78497 13.215 7.7998 12 7.7998Z" fill="currentColor"/>
<path fill-rule="evenodd" clip-rule="evenodd" d="M11.9004 2C17.368 2 21.8008 6.43277 21.8008 11.9004C21.8008 12.046 21.7953 12.1908 21.7891 12.335C21.7873 12.3767 21.7865 12.4184 21.7842 12.46C21.7767 12.5942 21.7667 12.7276 21.7539 12.8604C21.7501 12.9002 21.7455 12.9398 21.7412 12.9795C21.7094 13.273 21.6643 13.5624 21.6074 13.8477C21.6025 13.8721 21.5978 13.8965 21.5928 13.9209C21.5658 14.051 21.5369 14.1804 21.5049 14.3086C21.495 14.3482 21.484 14.3874 21.4736 14.4268C21.4002 14.7058 21.3154 14.9802 21.2188 15.249C21.2083 15.278 21.1982 15.3071 21.1875 15.3359C21.1394 15.466 21.0876 15.5943 21.0342 15.7217C21.0252 15.7432 21.016 15.7647 21.0068 15.7861C20.9512 15.9163 20.894 16.0456 20.833 16.1729C20.8215 16.1969 20.8086 16.2202 20.7969 16.2441C20.7431 16.354 20.6876 16.4628 20.6299 16.5703C20.6175 16.5934 20.6053 16.6166 20.5928 16.6396C20.5325 16.7499 20.4706 16.8591 20.4062 16.9668C20.3848 17.0028 20.3628 17.0385 20.3408 17.0742C20.2795 17.1739 20.217 17.2728 20.1523 17.3701C20.1185 17.4211 20.0836 17.4712 20.0488 17.5215C20.0071 17.5818 19.9649 17.6418 19.9219 17.7012C19.8848 17.7523 19.8475 17.8031 19.8096 17.8535C19.7353 17.9521 19.6589 18.0489 19.5811 18.1445C19.5558 18.1756 19.5305 18.2066 19.5049 18.2373C19.419 18.3403 19.3312 18.4416 19.2412 18.541C19.2253 18.5586 19.2094 18.5763 19.1934 18.5938C19.1267 18.6663 19.058 18.737 18.9893 18.8076C18.9385 18.8597 18.8878 18.9119 18.8359 18.9629C18.7549 19.0424 18.6726 19.1205 18.5889 19.1973C18.5704 19.2142 18.5518 19.2312 18.5332 19.248C18.4351 19.3366 18.336 19.4241 18.2344 19.5088C18.2 19.5374 18.1646 19.5646 18.1299 19.5928C18.053 19.6551 17.9752 19.7163 17.8965 19.7764C16.9295 20.5137 15.823 21.0753 14.623 21.418C14.6117 21.4212 14.6003 21.4245 14.5889 21.4277C14.4424 21.469 14.2946 21.5064 14.1455 21.541C14.1094 21.5494 14.0734 21.5584 14.0371 21.5664C13.9017 21.5962 13.7653 21.6223 13.6279 21.6465C13.5827 21.6545 13.5376 21.6635 13.4922 21.6709C13.4412 21.6791 13.3902 21.6878 13.3389 21.6953C13.2207 21.7126 13.1019 21.7272 12.9824 21.7402C12.9314 21.7458 12.8803 21.7511 12.8291 21.7559C12.6983 21.7681 12.5668 21.779 12.4346 21.7861C12.4099 21.7874 12.3851 21.7879 12.3604 21.7891C12.2079 21.7961 12.0546 21.8008 11.9004 21.8008C11.7459 21.8008 11.5922 21.7961 11.4395 21.7891C11.4147 21.7879 11.3899 21.7874 11.3652 21.7861C11.2274 21.7787 11.0904 21.7679 10.9541 21.7549C10.9176 21.7514 10.8811 21.748 10.8447 21.7441C10.713 21.7301 10.5823 21.7125 10.4521 21.6934C10.4137 21.6877 10.3753 21.6819 10.3369 21.6758C10.2666 21.6646 10.1968 21.6514 10.127 21.6387C10.0077 21.6171 9.88919 21.5942 9.77148 21.5684C9.72902 21.559 9.68679 21.549 9.64453 21.5391C9.50173 21.5058 9.36008 21.4701 9.21973 21.4307C9.20207 21.4257 9.18461 21.4201 9.16699 21.415C9.00642 21.369 8.84754 21.3195 8.69043 21.2656C8.68624 21.2642 8.68192 21.2632 8.67773 21.2617C7.6841 20.9197 6.76164 20.4257 5.93945 19.8047C5.83822 19.7282 5.73878 19.6496 5.64062 19.5693C5.62161 19.5538 5.6019 19.5391 5.58301 19.5234C5.47535 19.4341 5.37034 19.3418 5.2666 19.248C5.24796 19.2312 5.22945 19.2142 5.21094 19.1973C5.10893 19.1037 5.00816 19.0088 4.91016 18.9111C4.88668 18.8877 4.86406 18.8635 4.84082 18.8398C4.6487 18.6444 4.46455 18.4412 4.28906 18.2305C4.26688 18.2038 4.24457 18.1773 4.22266 18.1504C4.14315 18.0528 4.06507 17.9541 3.98926 17.8535C3.96626 17.823 3.94453 17.7915 3.92188 17.7607C3.85343 17.6677 3.78593 17.574 3.7207 17.4785C3.7067 17.458 3.69257 17.4376 3.67871 17.417C3.60304 17.3044 3.53009 17.19 3.45898 17.0742C3.43713 17.0386 3.41594 17.0027 3.39453 16.9668C3.16884 16.5887 2.96749 16.1946 2.79297 15.7861C2.7838 15.7647 2.77464 15.7432 2.76562 15.7217C2.71231 15.5944 2.66137 15.4659 2.61328 15.3359C2.60164 15.3045 2.59044 15.2728 2.5791 15.2412C2.48359 14.9748 2.39893 14.7032 2.32617 14.4268C2.31583 14.3875 2.30577 14.3481 2.2959 14.3086C2.26383 14.1803 2.23404 14.0511 2.20703 13.9209C2.20198 13.8965 2.19726 13.8721 2.19238 13.8477C2.13549 13.5625 2.09041 13.273 2.05859 12.9795C2.05429 12.9398 2.04973 12.9002 2.0459 12.8604C2.03313 12.7276 2.0231 12.5942 2.01562 12.46C2.01331 12.4184 2.01254 12.3767 2.01074 12.335C2.00452 12.1909 2 12.046 2 11.9004C2 6.43277 6.43277 2 11.9004 2ZM11.9004 3.80078C7.42688 3.80078 3.80078 7.42688 3.80078 11.9004C3.80078 13.1345 4.07767 14.3038 4.57129 15.3506C5.06068 16.387 5.76368 17.3029 6.62305 18.042C7.081 18.4359 7.58265 18.7798 8.12109 19.0645C8.24909 19.1321 8.3798 19.1949 8.51172 19.2559C9.54299 19.7317 10.69 20 11.9004 20C12.5746 20 13.2292 19.916 13.8555 19.7607C14.1774 19.6807 14.4915 19.5811 14.7969 19.4639C15.6741 19.1278 16.4769 18.6438 17.1768 18.042C18.0362 17.3029 18.7389 16.3869 19.2285 15.3506C19.7222 14.3037 20 13.1347 20 11.9004C20 7.42688 16.3739 3.80078 11.9004 3.80078Z" fill="currentColor"/>
</svg>
