<svg width="43" height="13" viewBox="0 0 43 13" fill="none" xmlns="http://www.w3.org/2000/svg">
<path d="M4.55566 12.5762C7.40283 12.5762 9.12939 10.1606 9.12939 6.29248V6.27588C9.12939 2.40771 7.40283 0.000488281 4.55566 0.000488281C1.7085 0.000488281 -0.00146484 2.40771 -0.00146484 6.27588V6.29248C-0.00146484 10.1606 1.7085 12.5762 4.55566 12.5762ZM4.55566 10.8413C3.02832 10.8413 2.15674 9.13135 2.15674 6.29248V6.27588C2.15674 3.43701 3.02832 1.74365 4.55566 1.74365C6.08301 1.74365 6.97119 3.43701 6.97119 6.27588V6.29248C6.97119 9.13135 6.08301 10.8413 4.55566 10.8413ZM15.2202 0.000488281C12.6221 0.000488281 10.771 1.77686 10.771 4.20898V4.22559C10.771 6.5 12.3813 8.17676 14.6807 8.17676C16.3242 8.17676 17.3701 7.33838 17.8101 6.39209H17.9761C17.9761 6.4834 17.9678 6.57471 17.9678 6.66602C17.8765 8.95703 17.0713 10.8164 15.1704 10.8164C14.1162 10.8164 13.3774 10.2686 13.062 9.43018L13.0371 9.34717H10.9287L10.9453 9.43848C11.3271 11.2729 12.9707 12.5762 15.1704 12.5762C18.1836 12.5762 20.0015 10.1855 20.0015 6.15137V6.13477C20.0015 1.81836 17.7769 0.000488281 15.2202 0.000488281ZM15.2119 6.5332C13.8506 6.5332 12.8628 5.53711 12.8628 4.15088V4.13428C12.8628 2.79785 13.917 1.74365 15.2368 1.74365C16.5649 1.74365 17.6025 2.81445 17.6025 4.18408V4.20068C17.6025 5.55371 16.5649 6.5332 15.2119 6.5332ZM23.27 4.51611C24.0337 4.51611 24.5898 3.93506 24.5898 3.20459C24.5898 2.46582 24.0337 1.89307 23.27 1.89307C22.5146 1.89307 21.9502 2.46582 21.9502 3.20459C21.9502 3.93506 22.5146 4.51611 23.27 4.51611ZM23.27 10.6753C24.0337 10.6753 24.5898 10.1025 24.5898 9.36377C24.5898 8.625 24.0337 8.05225 23.27 8.05225C22.5146 8.05225 21.9502 8.625 21.9502 9.36377C21.9502 10.1025 22.5146 10.6753 23.27 10.6753ZM32.3491 12.2773H34.3994V9.97803H36.0098V8.20996H34.3994V0.299316H31.3696C29.7427 2.77295 28.041 5.52881 26.4888 8.22656V9.97803H32.3491V12.2773ZM28.481 8.25977V8.13525C29.6431 6.10156 31.0293 3.88525 32.2578 2.00928H32.3823V8.25977H28.481ZM40.4736 12.2773H42.6152V0.299316H40.4819L37.3525 2.49902V4.51611L40.3325 2.40771H40.4736V12.2773Z" fill="#1A1A1A"/>
</svg>
