<svg width="24" height="24" viewBox="0 0 24 24" fill="none" xmlns="http://www.w3.org/2000/svg">
<path d="M12.1699 15C12.8416 15.0001 13.3865 15.448 13.3867 16C13.3867 16.5521 12.8417 16.9999 12.1699 17H3.91992C3.24798 17 2.70313 16.5522 2.70313 16C2.7033 15.4479 3.24808 15 3.91992 15H12.1699Z" fill="#1A1A1A"/>
<path fill-rule="evenodd" clip-rule="evenodd" d="M18.002 10C18.5626 10.0002 19.0598 10.3614 19.2334 10.8945L21.0361 16.4326C21.2236 17.0086 20.7942 17.5996 20.1885 17.5996C19.7981 17.5995 19.4536 17.3455 19.3379 16.9727L18.9971 15.874H17.0078L16.668 16.9727C16.5523 17.3454 16.2077 17.5994 15.8174 17.5996C15.2118 17.5996 14.7825 17.0085 14.9697 16.4326L16.7695 10.8945C16.943 10.361 17.4409 10 18.002 10ZM17.5098 14.2549H18.4941L18.001 12.667L17.5098 14.2549Z" fill="#1A1A1A"/>
<path fill-rule="evenodd" clip-rule="evenodd" d="M14.0029 10.583C14.6749 10.583 15.2197 11.0498 15.2197 11.6255C15.2197 12.2012 14.6749 12.668 14.0029 12.668H3.91992C3.24798 12.668 2.70312 12.2012 2.70312 11.6255C2.70312 11.0498 3.24798 10.583 3.91992 10.583H14.0029ZM14.79 11.2247C14.8263 11.277 14.8564 11.3329 14.8779 11.3921C14.86 11.3428 14.8379 11.2952 14.8096 11.2507C14.8038 11.2416 14.7962 11.2336 14.79 11.2247ZM14.2754 10.875C14.341 10.8925 14.4026 10.9171 14.4609 10.9461C14.4538 10.9426 14.4476 10.9378 14.4404 10.9344C14.3883 10.9101 14.333 10.8903 14.2754 10.875Z" fill="#1A1A1A"/>
<path d="M18.5859 6C19.2579 6 19.8027 6.44777 19.8027 7C19.8026 7.5521 19.2578 8 18.5859 8H3.91992C3.24808 8 2.7033 7.5521 2.70312 7C2.70312 6.44777 3.24798 6 3.91992 6H18.5859Z" fill="#1A1A1A"/>
</svg>
