<svg width="24" height="24" viewBox="0 0 24 24" fill="none" xmlns="http://www.w3.org/2000/svg">
<path d="M12.1699 15C12.8416 15.0001 13.3865 15.448 13.3867 16C13.3867 16.5521 12.8417 16.9999 12.1699 17H3.91992C3.24798 17 2.70313 16.5522 2.70313 16C2.7033 15.4479 3.24808 15 3.91992 15H12.1699Z" fill="#1A1A1A"/>
<path fill-rule="evenodd" clip-rule="evenodd" d="M12.0029 10.583C12.6749 10.583 13.2197 11.0498 13.2197 11.6255C13.2197 12.2012 12.6749 12.668 12.0029 12.668H3.91992C3.24798 12.668 2.70312 12.2012 2.70312 11.6255C2.70312 11.0498 3.24798 10.583 3.91992 10.583H12.0029Z" fill="#1A1A1A"/>
<path d="M18.5859 6C19.2579 6 19.8027 6.44777 19.8027 7C19.8026 7.5521 19.2578 8 18.5859 8H3.91992C3.24808 8 2.7033 7.5521 2.70313 7C2.70313 6.44777 3.24798 6 3.91992 6H18.5859Z" fill="#1A1A1A"/>
<path d="M18 10C20.2091 10 22 11.7909 22 14C22 16.2091 20.2091 18 18 18C15.7909 18 14 16.2091 14 14C14 11.7909 15.7909 10 18 10ZM18 11.1426C17.6845 11.1426 17.4289 11.3985 17.4287 11.7139V14L17.4395 14.1152C17.4927 14.3757 17.7238 14.5713 18 14.5713H20.2861C20.6015 14.5711 20.8574 14.3155 20.8574 14C20.8574 13.6845 20.6015 13.4289 20.2861 13.4287H18.5713V11.7139C18.5711 11.3985 18.3155 11.1426 18 11.1426Z" fill="#1A1A1A"/>
</svg>
