<svg width="24" height="24" viewBox="0 0 24 24" fill="none" xmlns="http://www.w3.org/2000/svg">
<path d="M18 9C18.5523 9 19 9.44772 19 10V12C19 15.5264 16.3921 18.4414 13 18.9268V21C13 21.5523 12.5523 22 12 22C11.4477 22 11 21.5523 11 21V18.9268C7.60787 18.4414 5 15.5264 5 12V10C5 9.44772 5.44772 9 6 9C6.55228 9 7 9.44772 7 10V12C7 14.7614 9.23858 17 12 17C14.7614 17 17 14.7614 17 12V10C17 9.44772 17.4477 9 18 9Z" fill="#1A1A1A"/>
<path d="M12 2C13.6569 2 15 3.34315 15 5V12C15 13.6569 13.6569 15 12 15C10.3431 15 9 13.6569 9 12V5C9 3.34315 10.3431 2 12 2Z" fill="#1A1A1A"/>
</svg>
