<svg width="20" height="20" viewBox="0 0 20 20" fill="none" xmlns="http://www.w3.org/2000/svg">
<path fill-rule="evenodd" clip-rule="evenodd" d="M7.75192 11.6276H12.2211C12.7594 11.5471 13.1912 11.1409 13.3044 10.6084C13.4439 10.1088 13.3143 9.57253 12.9619 9.19178C12.4394 8.71428 11.7494 8.25011 11.7494 7.55511V5.01011C11.7461 4.78312 11.6528 4.56674 11.4899 4.40858C11.3271 4.25042 11.1081 4.16344 10.8811 4.16678H9.14442C8.91743 4.16344 8.69841 4.25042 8.53556 4.40858C8.37271 4.56674 8.27937 4.78312 8.27608 5.01011V7.55511C8.27608 8.25345 7.58692 8.71428 7.06358 9.19428C6.71123 9.57503 6.58158 10.1113 6.72108 10.6109C6.81348 11.1346 7.22704 11.5425 7.75192 11.6276Z" fill="#C6C6C6" stroke="#C6C6C6" stroke-width="1.5" stroke-linecap="round" stroke-linejoin="round"/>
<path fill-rule="evenodd" clip-rule="evenodd" d="M9.986 11.6276V15.8334V11.6276Z" fill="#C6C6C6"/>
<path d="M9.986 11.6276V15.8334" stroke="#C6C6C6" stroke-width="1.5" stroke-linecap="round"/>
</svg>
