<svg width="24" height="24" viewBox="0 0 24 24" fill="none" xmlns="http://www.w3.org/2000/svg">
<path d="M10.8574 13.9004H13.1436C15.8238 13.9006 18.2194 16.0603 18.9082 19.207C18.9573 19.4315 18.8939 19.6317 18.7393 19.7969C18.5753 19.9719 18.3094 20.0996 18 20.0996H6C5.69068 20.0995 5.42458 19.9719 5.26074 19.7969C5.10631 19.6318 5.04369 19.4313 5.09277 19.207C5.78157 16.0603 8.17712 13.9004 10.8574 13.9004ZM12 4.90039C13.7121 4.90039 15.1006 6.28792 15.1006 8C15.1006 9.71208 13.7121 11.0996 12 11.0996C10.2881 11.0994 8.90039 9.71196 8.90039 8C8.90039 6.28804 10.2881 4.90059 12 4.90039Z" stroke="#1A1A1A" stroke-width="1.8"/>
</svg>
