<svg width="24" height="24" viewBox="0 0 24 24" fill="none" xmlns="http://www.w3.org/2000/svg">
<path d="M19 13.7998C19.4417 13.7998 19.7996 14.158 19.7998 14.5996V16.2002H21.4004C21.842 16.2004 22.2002 16.5583 22.2002 17C22.2002 17.4417 21.842 17.7996 21.4004 17.7998H19.7998V19.4004C19.7996 19.842 19.4417 20.2002 19 20.2002C18.5583 20.2002 18.2004 19.842 18.2002 19.4004V17.7998H16.5996C16.158 17.7996 15.7998 17.4417 15.7998 17C15.7998 16.5583 16.158 16.2004 16.5996 16.2002H18.2002V14.5996C18.2004 14.158 18.5583 13.7998 19 13.7998Z" fill="#1A1A1A"/>
<path d="M14.6328 3C15.4668 3.00021 16.2603 3.33942 16.8096 3.93164L18.0635 6.28516C18.088 6.31159 18.1239 6.32615 18.1611 6.32617C20.2815 6.32623 22 7.94917 22 9.9502V12.1631C22 12.6128 21.6142 12.9774 21.1377 12.9775C20.6611 12.9775 20.2744 12.6129 20.2744 12.1631V9.9502C20.2744 8.84874 19.3283 7.95514 18.1611 7.95508C17.6262 7.95506 17.1169 7.73733 16.7646 7.35742L15.5107 5.00488C15.2892 4.76605 14.9691 4.62814 14.6328 4.62793H9.36719C9.03087 4.62814 8.71079 4.76605 8.48926 5.00488L7.23535 7.35742C6.8831 7.73733 6.37378 7.95506 5.83887 7.95508C4.67174 7.95514 3.72559 8.84874 3.72559 9.9502V16.3115C3.72559 17.4492 4.70275 18.372 5.9082 18.3721H13.8027C14.2792 18.3721 14.6648 18.736 14.665 19.1855C14.665 19.6353 14.2793 20 13.8027 20H5.9082C3.74953 19.9999 2 18.3487 2 16.3115V9.9502C2 7.94917 3.71852 6.32623 5.83887 6.32617C5.87608 6.32616 5.91202 6.31159 5.93652 6.28516L7.19043 3.93164C7.7397 3.33942 8.53323 3.00021 9.36719 3H14.6328Z" fill="#1A1A1A"/>
<path fill-rule="evenodd" clip-rule="evenodd" d="M12 8C14.2091 8 16 9.79086 16 12C16 14.2091 14.2091 16 12 16C9.79086 16 8 14.2091 8 12C8 9.79086 9.79086 8 12 8ZM12 9.7998C10.785 9.7998 9.7998 10.785 9.7998 12C9.7998 13.215 10.785 14.2002 12 14.2002C13.215 14.2002 14.2002 13.215 14.2002 12C14.2002 10.785 13.215 9.7998 12 9.7998Z" fill="#1A1A1A"/>
</svg>
