<svg width="24" height="24" viewBox="0 0 24 24" fill="none" xmlns="http://www.w3.org/2000/svg">
<path fill-rule="evenodd" clip-rule="evenodd" d="M12.0016 8C14.2105 8.00022 16.0016 9.79099 16.0016 12C16.0016 14.209 14.2105 15.9998 12.0016 16C9.79242 16 8.00155 14.2091 8.00155 12C8.00155 9.79086 9.79242 8 12.0016 8ZM12.0016 9.7998C10.7865 9.7998 9.80136 10.785 9.80136 12C9.80136 13.215 10.7865 14.2002 12.0016 14.2002C13.2164 14.2 14.2017 13.2149 14.2017 12C14.2017 10.7851 13.2164 9.80002 12.0016 9.7998Z" fill="#1A1A1A"/>
<path fill-rule="evenodd" clip-rule="evenodd" d="M12.4342 2.00879C12.8638 2.02586 13.2871 2.06776 13.7017 2.13379C14.2832 2.22655 14.7615 2.62484 15.0211 3.15332L15.4488 4.02441C15.7877 4.71455 16.4896 5.14582 17.2496 5.14355L17.4019 5.1377L18.482 5.05176C19.0576 5.00628 19.6342 5.2046 20.0094 5.64355C20.7158 6.47016 21.2863 7.4089 21.69 8.42676C21.915 8.99429 21.794 9.63092 21.4381 10.127L20.9303 10.834L20.8424 10.9668C20.4319 11.6469 20.462 12.5126 20.9312 13.166L21.4371 13.8721C21.7932 14.3681 21.9151 15.0046 21.69 15.5723C21.2862 16.5903 20.715 17.5287 20.0084 18.3555C19.6333 18.7943 19.0575 18.9926 18.482 18.9473L17.4019 18.8623C16.5847 18.7978 15.8103 19.2389 15.4488 19.9746L15.0211 20.8457L14.9137 21.0371C14.6405 21.4684 14.2112 21.7837 13.7027 21.8652L13.2848 21.9238C12.8648 21.9742 12.4366 22 12.0025 22L11.5699 21.9912C11.283 21.9797 10.9987 21.9574 10.7184 21.9238L10.3014 21.8652C9.79255 21.7839 9.36271 21.4687 9.08945 21.0371L8.98202 20.8447L8.55527 19.9746C8.19402 19.2387 7.41941 18.798 6.60214 18.8623L5.52109 18.9473L5.30527 18.9531C4.87604 18.9414 4.46068 18.7927 4.14413 18.5088L3.99472 18.3555C3.37662 17.6323 2.86177 16.8237 2.47226 15.9512L2.31308 15.5732C2.11592 15.0763 2.18485 14.5265 2.44394 14.0645L2.56601 13.8721L3.07284 13.167C3.57363 12.4699 3.57348 11.5303 3.07284 10.833L2.56601 10.127C2.20963 9.63074 2.08776 8.99365 2.31308 8.42578C2.71688 7.40819 3.2875 6.47 3.99374 5.64355C4.36899 5.20461 4.9454 5.0062 5.52109 5.05176L6.60116 5.1377C7.36771 5.19831 8.09726 4.81415 8.483 4.15918L8.55527 4.02441L8.98202 3.1543C9.24151 2.62538 9.71955 2.22643 10.3014 2.13379C10.8546 2.04572 11.4234 2 12.0025 2L12.4342 2.00879ZM12.0025 3.7998C11.5323 3.7998 11.0715 3.83701 10.6236 3.90625L10.6226 3.9082C10.6153 3.91746 10.6063 3.93004 10.5982 3.94629L10.1715 4.81738C9.48504 6.21653 8.01315 7.05453 6.45956 6.93164L5.37948 6.8457C5.36182 6.8443 5.34601 6.84427 5.33456 6.8457C4.77858 7.50315 4.32891 8.24246 4.00644 9.03906C4.0112 9.04966 4.01792 9.06323 4.02792 9.07715L4.53476 9.7832C5.48603 11.1079 5.48617 12.8922 4.53476 14.2168L4.02792 14.9219C4.0182 14.9354 4.0112 14.9486 4.00644 14.959C4.32886 15.7557 4.77926 16.4946 5.33554 17.1523C5.34691 17.1538 5.36207 17.1547 5.37948 17.1533L6.46054 17.0674C8.0136 16.945 9.48513 17.7831 10.1715 19.1816L10.5982 20.0518C10.6064 20.0683 10.6152 20.0814 10.6226 20.0908L10.6246 20.0928C11.0727 20.1624 11.5332 20.2002 12.0025 20.2002C12.4712 20.2002 12.9308 20.1624 13.3785 20.0928L13.3814 20.0908C13.3889 20.0814 13.3978 20.0682 13.4059 20.0518L13.8336 19.1807C14.5203 17.7828 15.9909 16.9448 17.5435 17.0674L18.6236 17.1533C18.6405 17.1546 18.6554 17.1537 18.6666 17.1523C19.2231 16.4944 19.6732 15.7553 19.9957 14.958C19.991 14.9478 19.9846 14.935 19.9752 14.9219L19.4684 14.2158C18.5177 12.8916 18.5178 11.1086 19.4684 9.78418L19.9752 9.07715C19.9849 9.06363 19.991 9.05043 19.9957 9.04004C19.6731 8.24294 19.2238 7.50334 18.6676 6.8457C18.6563 6.84432 18.6408 6.84436 18.6236 6.8457L17.5445 6.93164C15.9913 7.05476 14.5204 6.21688 13.8336 4.81836L13.4059 3.94727C13.3979 3.93097 13.3888 3.91755 13.3814 3.9082L13.3795 3.90625C12.932 3.83702 12.472 3.79984 12.0025 3.7998Z" fill="#1A1A1A"/>
</svg>
