<svg width="24" height="24" viewBox="0 0 24 24" fill="none" xmlns="http://www.w3.org/2000/svg">
<circle cx="12" cy="12" r="2" stroke="#393939" stroke-width="2"/>
<path d="M5.39881 5.87922C4.46907 6.88131 3.79395 8.07052 3.40085 9.3446L5.00016 10.268C6.3335 11.0378 6.3335 12.9623 5.00016 13.7321L3.39914 14.6564C3.59436 15.2865 3.86232 15.9047 4.20602 16.5C4.54971 17.0953 4.95113 17.6365 5.39914 18.1205L7.00019 17.1962C8.33352 16.4264 10.0002 17.3886 10.0002 18.9282L10.0002 20.775C11.3001 21.0716 12.6676 21.0816 14.0003 20.7774L14.0003 18.9283C14.0003 17.3887 15.6669 16.4264 17.0003 17.1962L18.6017 18.1208C19.5314 17.1187 20.2065 15.9295 20.5996 14.6554L19.0003 13.732C17.6669 12.9622 17.6669 11.0377 19.0003 10.2679L20.6013 9.34354C20.4061 8.71353 20.1382 8.0953 19.7945 7.50001C19.4508 6.9047 19.0493 6.36352 18.6013 5.87944L17.0003 6.8038C15.6669 7.5736 14.0003 6.61135 14.0003 5.07175L14.0003 3.22501C12.7003 2.92841 11.3329 2.91847 10.0002 3.2226L10.0002 5.07172C10.0002 6.61132 8.33352 7.57357 7.00019 6.80377L5.39881 5.87922Z" stroke="#393939" stroke-width="2" stroke-linejoin="round"/>
</svg>
