<svg width="24" height="24" viewBox="0 0 24 24" fill="none" xmlns="http://www.w3.org/2000/svg">
<path d="M11.0986 3.87626C11.4618 3.12031 12.5382 3.12031 12.9014 3.87626L14.6584 7.53349C14.8041 7.83693 15.0928 8.04666 15.4264 8.09153L19.4476 8.63237C20.2788 8.74416 20.6114 9.76789 20.0047 10.3469L17.0694 13.148C16.8258 13.3804 16.7156 13.7198 16.776 14.0509L17.5042 18.0424C17.6548 18.8675 16.7839 19.5002 16.0458 19.1021L12.4747 17.176C12.1784 17.0162 11.8216 17.0162 11.5253 17.176L7.95422 19.1021C7.21607 19.5002 6.34523 18.8675 6.49576 18.0424L7.224 14.0509C7.28442 13.7198 7.17416 13.3804 6.93062 13.148L3.99533 10.3469C3.38859 9.76789 3.72122 8.74416 4.55241 8.63237L8.57357 8.09153C8.9072 8.04666 9.19587 7.83693 9.34165 7.53349L11.0986 3.87626Z" stroke="#1A1A1A" stroke-width="1.8"/>
</svg>
