<svg width="12" height="12" viewBox="0 0 12 12" fill="none" xmlns="http://www.w3.org/2000/svg">
<path d="M6.25684 1.00684C8.89909 1.14051 11 3.32451 11 6C11 8.76164 8.76164 11 6 11C3.23836 11 1 8.76164 1 6C1 3.23836 3.23836 1 6 1L6.25684 1.00684Z" fill="white" stroke="white" stroke-width="2" stroke-linecap="round" stroke-linejoin="round"/>
<path d="M6 2C6.2209 2 6.40039 2.17949 6.40039 2.40039C6.40029 2.6212 6.22083 2.7998 6 2.7998C4.2329 2.79989 2.80078 4.23288 2.80078 6C2.80082 7.76709 4.23292 9.19913 6 9.19922C7.76715 9.19922 9.20015 7.76714 9.2002 6C9.2002 5.77919 9.37883 5.59975 9.59961 5.59961C9.82051 5.59961 10 5.7791 10 6C9.99996 8.20893 8.20894 10 6 10C3.79113 9.99992 2.00004 8.20888 2 6C2 3.79109 3.79111 2.00008 6 2ZM8.7998 2.7998C8.95129 2.7998 9.09044 2.886 9.1582 3.02148C9.22572 3.15688 9.21087 3.31936 9.12012 3.44043L8.40039 4.40039H9.2002C9.42087 4.40055 9.59947 4.57912 9.59961 4.7998C9.59961 5.0206 9.42096 5.20004 9.2002 5.2002H7.59961C7.44828 5.20004 7.30988 5.11389 7.24219 4.97852C7.17469 4.84316 7.18959 4.68161 7.28027 4.56055L8 3.60059H7.59961C7.37892 3.60036 7.20022 3.42093 7.2002 3.2002C7.20022 2.97946 7.37892 2.80003 7.59961 2.7998H8.7998Z" fill="#8E8E8E"/>
</svg>
