<svg width="12" height="12" viewBox="0 0 12 12" fill="none" xmlns="http://www.w3.org/2000/svg">
<path d="M6.25684 1.00684C8.89909 1.14051 11 3.32451 11 6C11 8.76164 8.76164 11 6 11C3.23836 11 1 8.76164 1 6C1 3.23836 3.23836 1 6 1L6.25684 1.00684Z" fill="white" stroke="white" stroke-width="2" stroke-linecap="round" stroke-linejoin="round"/>
<path fill-rule="evenodd" clip-rule="evenodd" d="M6 2C8.20914 2 10 3.79086 10 6C10 8.20914 8.20914 10 6 10C3.79086 10 2 8.20914 2 6C2 3.79086 3.79086 2 6 2ZM6 2.8C4.23269 2.8 2.8 4.23269 2.8 6C2.8 7.76731 4.23269 9.2 6 9.2C7.76731 9.2 9.2 7.76731 9.2 6C9.2 4.23269 7.76731 2.8 6 2.8Z" fill="#8E8E8E"/>
</svg>
