<svg width="24" height="24" viewBox="0 0 24 24" fill="none" xmlns="http://www.w3.org/2000/svg">
<path d="M2.75 19L3.99138 15M12.25 19L10.8707 15M10.8707 15L7.7477 5.94333C7.59019 5.48654 6.94069 5.49666 6.79748 5.95812L3.99138 15M10.8707 15H3.99138M14.25 11.5C14.4167 10.6667 15.35 9 17.75 9C20.75 9 21.25 11.5 21.25 13C21.25 13.1371 21.25 13.3059 21.25 13.5M21.25 13.5H16.75C15.9167 13.5 14.25 14.1 14.25 16.5C14.25 18.9 16.5833 19.1667 17.75 19C19.1491 18.8001 20.05 17.7 21.25 16.5M21.25 13.5V16.5M21.25 13.5C21.25 14.2499 21.25 15.3761 21.25 16.5M21.25 16.5V19.5C21.25 18.7596 21.25 17.631 21.25 16.5Z" stroke="#393939" stroke-width="1.8" stroke-linecap="round" stroke-linejoin="round"/>
</svg>
