<svg width="24" height="24" viewBox="0 0 24 24" fill="none" xmlns="http://www.w3.org/2000/svg">
<path d="M19.3333 15.3333C19.3333 14.9797 19.1929 14.6406 18.9428 14.3905C18.6928 14.1405 18.3536 14 18 14C17.6464 14 17.3072 14.1405 17.0572 14.3905C16.8071 14.6406 16.6667 14.9797 16.6667 15.3333V16.6667H15.3333C14.9797 16.6667 14.6406 16.8071 14.3905 17.0572C14.1405 17.3072 14 17.6464 14 18C14 18.3536 14.1405 18.6928 14.3905 18.9428C14.6406 19.1929 14.9797 19.3333 15.3333 19.3333H16.6667V20.6667C16.6667 21.0203 16.8071 21.3594 17.0572 21.6095C17.3072 21.8595 17.6464 22 18 22C18.3536 22 18.6928 21.8595 18.9428 21.6095C19.1929 21.3594 19.3333 21.0203 19.3333 20.6667V19.3333H20.6667C21.0203 19.3333 21.3594 19.1929 21.6095 18.9428C21.8595 18.6928 22 18.3536 22 18C22 17.6464 21.8595 17.3072 21.6095 17.0572C21.3594 16.8071 21.0203 16.6667 20.6667 16.6667H19.3333V15.3333Z" fill="#1B1C1C"/>
<path d="M12 3.59961C17.3016 3.59961 21.5995 7.36085 21.5996 12C21.5996 12.385 21.5671 12.7635 21.5098 13.1348C20.5227 12.4215 19.3109 12 18 12C14.6863 12 12 14.6863 12 18C12 18.8491 12.177 19.6566 12.4951 20.3887C12.3311 20.396 12.1661 20.4004 12 20.4004C10.2961 20.4076 8.61562 20.0035 7.10059 19.2236L2.40039 20.4004L4.00586 16.6523C2.99186 15.3203 2.40039 13.7208 2.40039 12C2.40045 7.36085 6.69845 3.59962 12 3.59961Z" fill="#1B1C1C"/>
</svg>
