<svg width="32" height="32" viewBox="0 0 32 32" fill="none" xmlns="http://www.w3.org/2000/svg">
<path d="M3.19995 7.9998C3.19995 7.15111 3.53709 6.33718 4.13721 5.73706C4.73733 5.13695 5.55126 4.7998 6.39995 4.7998H17.6C18.4486 4.7998 19.2626 5.13695 19.8627 5.73706C20.4628 6.33718 20.8 7.15111 20.8 7.9998V14.3998C20.8 15.2485 20.4628 16.0624 19.8627 16.6625C19.2626 17.2627 18.4486 17.5998 17.6 17.5998H14.4L9.59995 22.3998V17.5998H6.39995C5.55126 17.5998 4.73733 17.2627 4.13721 16.6625C3.53709 16.0624 3.19995 15.2485 3.19995 14.3998V7.9998Z" fill="#0963F4"/>
<path d="M24 11.2002V14.4002C24 16.0976 23.3257 17.7254 22.1255 18.9257C20.9252 20.1259 19.2974 20.8002 17.6 20.8002H15.7248L12.8992 23.6274C13.3472 23.8658 13.8576 24.0002 14.4 24.0002H17.6L22.4 28.8002V24.0002H25.6C26.4487 24.0002 27.2626 23.6631 27.8627 23.0629C28.4628 22.4628 28.8 21.6489 28.8 20.8002V14.4002C28.8 13.5515 28.4628 12.7376 27.8627 12.1375C27.2626 11.5373 26.4487 11.2002 25.6 11.2002H24Z" fill="#0963F4"/>
</svg>
