<svg width="32" height="32" viewBox="0 0 32 32" fill="none" xmlns="http://www.w3.org/2000/svg">
<path fill-rule="evenodd" clip-rule="evenodd" d="M16 28.8007C19.3947 28.8007 22.6505 27.4521 25.0509 25.0517C27.4514 22.6512 28.8 19.3955 28.8 16.0007C28.8 12.6059 27.4514 9.35018 25.0509 6.94972C22.6505 4.54925 19.3947 3.20068 16 3.20068C12.6052 3.20068 9.34945 4.54925 6.94898 6.94972C4.54852 9.35018 3.19995 12.6059 3.19995 16.0007C3.19995 19.3955 4.54852 22.6512 6.94898 25.0517C9.34945 27.4521 12.6052 28.8007 16 28.8007ZM11.2 14.4007C11.6243 14.4007 12.0313 14.2321 12.3313 13.9321C12.6314 13.632 12.8 13.225 12.8 12.8007C12.8 12.3763 12.6314 11.9694 12.3313 11.6693C12.0313 11.3693 11.6243 11.2007 11.2 11.2007C10.7756 11.2007 10.3686 11.3693 10.0686 11.6693C9.76852 11.9694 9.59995 12.3763 9.59995 12.8007C9.59995 13.225 9.76852 13.632 10.0686 13.9321C10.3686 14.2321 10.7756 14.4007 11.2 14.4007ZM22.4 12.8007C22.4 13.225 22.2314 13.632 21.9313 13.9321C21.6313 14.2321 21.2243 14.4007 20.8 14.4007C20.3756 14.4007 19.9686 14.2321 19.6686 13.9321C19.3685 13.632 19.2 13.225 19.2 12.8007C19.2 12.3763 19.3685 11.9694 19.6686 11.6693C19.9686 11.3693 20.3756 11.2007 20.8 11.2007C21.2243 11.2007 21.6313 11.3693 21.9313 11.6693C22.2314 11.9694 22.4 12.3763 22.4 12.8007ZM21.6576 21.6567C21.8061 21.508 21.9239 21.3316 22.0043 21.1374C22.0846 20.9432 22.1259 20.7351 22.1259 20.5249C22.1258 20.3148 22.0843 20.1067 22.0038 19.9125C21.9233 19.7184 21.8054 19.542 21.6568 19.3935C21.5081 19.2449 21.3316 19.1271 21.1374 19.0468C20.9433 18.9664 20.7351 18.9251 20.525 18.9252C20.3148 18.9252 20.1067 18.9667 19.9126 19.0472C19.7185 19.1277 19.5421 19.2456 19.3936 19.3943C18.4934 20.2941 17.2727 20.7997 16 20.7997C14.7272 20.7997 13.5065 20.2941 12.6064 19.3943C12.3063 19.0941 11.8993 18.9253 11.4749 18.9252C11.0505 18.925 10.6434 19.0935 10.3432 19.3935C10.0429 19.6935 9.87418 20.1005 9.87403 20.5249C9.87388 20.9494 10.0423 21.3565 10.3424 21.6567C11.0852 22.3998 11.9673 22.9892 12.938 23.3914C13.9087 23.7936 14.9492 24.0006 16 24.0006C17.0507 24.0006 18.0912 23.7936 19.0619 23.3914C20.0326 22.9892 20.9147 22.3998 21.6576 21.6567Z" fill="#C7CEDB"/>
</svg>
