<svg width="32" height="32" viewBox="0 0 32 32" fill="none" xmlns="http://www.w3.org/2000/svg">
<path d="M17.1311 3.66865C16.8311 3.3687 16.4242 3.2002 15.9999 3.2002C15.5757 3.2002 15.1688 3.3687 14.8687 3.66865L3.66874 14.8687C3.37729 15.1704 3.21602 15.5746 3.21966 15.9941C3.22331 16.4136 3.39158 16.8149 3.68823 17.1116C3.98489 17.4082 4.38619 17.5765 4.8057 17.5801C5.22522 17.5838 5.62938 17.4225 5.93114 17.1311L6.39994 16.6623V27.1999C6.39994 27.6242 6.56852 28.0312 6.86857 28.3312C7.16863 28.6313 7.5756 28.7999 7.99994 28.7999H11.1999C11.6243 28.7999 12.0313 28.6313 12.3313 28.3312C12.6314 28.0312 12.7999 27.6242 12.7999 27.1999V23.9999C12.7999 23.5755 12.9685 23.1685 13.2686 22.8685C13.5686 22.5684 13.9756 22.3999 14.3999 22.3999H17.5999C18.0243 22.3999 18.4313 22.5684 18.7313 22.8685C19.0314 23.1685 19.1999 23.5755 19.1999 23.9999V27.1999C19.1999 27.6242 19.3685 28.0312 19.6686 28.3312C19.9686 28.6313 20.3756 28.7999 20.7999 28.7999H23.9999C24.4243 28.7999 24.8313 28.6313 25.1313 28.3312C25.4314 28.0312 25.5999 27.6242 25.5999 27.1999V16.6623L26.0687 17.1311C26.3705 17.4225 26.7747 17.5838 27.1942 17.5801C27.6137 17.5765 28.015 17.4082 28.3117 17.1116C28.6083 16.8149 28.7766 16.4136 28.7802 15.9941C28.7839 15.5746 28.6226 15.1704 28.3311 14.8687L17.1311 3.66865Z" fill="#C7CEDB"/>
</svg>
