<svg width="24" height="24" viewBox="0 0 24 24" fill="none" xmlns="http://www.w3.org/2000/svg">
<path fill-rule="evenodd" clip-rule="evenodd" d="M6.05997 4.85984C7.63536 3.28446 9.77204 2.39941 12 2.39941C14.2279 2.39941 16.3646 3.28446 17.94 4.85984C19.5154 6.43523 20.4004 8.57191 20.4004 10.7998C20.4004 13.0278 19.5154 15.1645 17.94 16.7398L12 22.6798L6.05997 16.7398C5.27987 15.9598 4.66105 15.0338 4.23886 14.0146C3.81667 12.9954 3.59937 11.903 3.59937 10.7998C3.59937 9.69667 3.81667 8.6043 4.23886 7.5851C4.66105 6.56591 5.27987 5.63987 6.05997 4.85984ZM12 13.1998C12.6365 13.1998 13.2469 12.947 13.697 12.4969C14.1471 12.0468 14.4 11.4364 14.4 10.7998C14.4 10.1633 14.1471 9.55287 13.697 9.10279C13.2469 8.6527 12.6365 8.39984 12 8.39984C11.3635 8.39984 10.753 8.6527 10.3029 9.10279C9.85283 9.55287 9.59997 10.1633 9.59997 10.7998C9.59997 11.4364 9.85283 12.0468 10.3029 12.4969C10.753 12.947 11.3635 13.1998 12 13.1998Z" fill="currentColor"/>
</svg>
