<svg width="24" height="24" viewBox="0 0 24 24" fill="none" xmlns="http://www.w3.org/2000/svg">
<path fill-rule="evenodd" clip-rule="evenodd" d="M7.1999 3.5999C7.1999 3.28164 7.32633 2.97642 7.55137 2.75137C7.77642 2.52633 8.08164 2.3999 8.3999 2.3999H8.4119C8.73016 2.3999 9.03539 2.52633 9.26043 2.75137C9.48547 2.97642 9.6119 3.28164 9.6119 3.5999C9.6119 3.91816 9.48547 4.22339 9.26043 4.44843C9.03539 4.67347 8.73016 4.7999 8.4119 4.7999H8.3999C8.08164 4.7999 7.77642 4.67347 7.55137 4.44843C7.32633 4.22339 7.1999 3.91816 7.1999 3.5999ZM9.5999 7.1999C9.5999 6.88164 9.47347 6.57642 9.24843 6.35137C9.02339 6.12633 8.71816 5.9999 8.3999 5.9999C8.08164 5.9999 7.77642 6.12633 7.55137 6.35137C7.32633 6.57642 7.1999 6.88164 7.1999 7.1999V8.3999C6.56338 8.3999 5.95293 8.65276 5.50285 9.10285C5.05276 9.55293 4.7999 10.1634 4.7999 10.7999V11.9999C4.16338 11.9999 3.55293 12.2528 3.10285 12.7028C2.65276 13.1529 2.3999 13.7634 2.3999 14.3999V15.2195C2.8499 15.3457 3.27716 15.5421 3.6659 15.8015C4.00151 16.0259 4.39617 16.1457 4.7999 16.1457C5.20364 16.1457 5.59829 16.0259 5.9339 15.8015C6.6639 15.3139 7.52205 15.0537 8.3999 15.0537C9.27775 15.0537 10.1359 15.3139 10.8659 15.8015C11.2015 16.0259 11.5962 16.1457 11.9999 16.1457C12.4036 16.1457 12.7983 16.0259 13.1339 15.8015C13.8639 15.3139 14.7221 15.0537 15.5999 15.0537C16.4778 15.0537 17.3359 15.3139 18.0659 15.8015C18.4015 16.0259 18.7962 16.1457 19.1999 16.1457C19.6036 16.1457 19.9983 16.0259 20.3339 15.8015C20.7226 15.5421 21.1499 15.3457 21.5999 15.2195V14.3999C21.5999 13.7634 21.347 13.1529 20.897 12.7028C20.4469 12.2528 19.8364 11.9999 19.1999 11.9999V10.7999C19.1999 10.1634 18.947 9.55293 18.497 9.10285C18.0469 8.65276 17.4364 8.3999 16.7999 8.3999V7.1999C16.7999 6.88164 16.6735 6.57642 16.4484 6.35137C16.2234 6.12633 15.9182 5.9999 15.5999 5.9999C15.2816 5.9999 14.9764 6.12633 14.7514 6.35137C14.5263 6.57642 14.3999 6.88164 14.3999 7.1999V8.3999H13.1999V7.1999C13.1999 6.88164 13.0735 6.57642 12.8484 6.35137C12.6234 6.12633 12.3182 5.9999 11.9999 5.9999C11.6816 5.9999 11.3764 6.12633 11.1514 6.35137C10.9263 6.57642 10.7999 6.88164 10.7999 7.1999V8.3999H9.5999V7.1999ZM21.5999 17.8415C20.8727 18.3088 20.0248 18.5536 19.1605 18.5459C18.2961 18.5382 17.4527 18.2784 16.7339 17.7983C16.3983 17.5739 16.0036 17.4541 15.5999 17.4541C15.1962 17.4541 14.8015 17.5739 14.4659 17.7983C13.7359 18.2859 12.8778 18.5461 11.9999 18.5461C11.1221 18.5461 10.2639 18.2859 9.5339 17.7983C9.19829 17.5739 8.80364 17.4541 8.3999 17.4541C7.99617 17.4541 7.60151 17.5739 7.2659 17.7983C6.54707 18.2784 5.70373 18.5382 4.83935 18.5459C3.97497 18.5536 3.12715 18.3088 2.3999 17.8415V20.3999C2.3999 20.7182 2.52633 21.0234 2.75137 21.2484C2.97642 21.4735 3.28164 21.5999 3.5999 21.5999H20.3999C20.7182 21.5999 21.0234 21.4735 21.2484 21.2484C21.4735 21.0234 21.5999 20.7182 21.5999 20.3999V17.8415ZM10.7999 3.5999C10.7999 3.28164 10.9263 2.97642 11.1514 2.75137C11.3764 2.52633 11.6816 2.3999 11.9999 2.3999H12.0119C12.3302 2.3999 12.6354 2.52633 12.8604 2.75137C13.0855 2.97642 13.2119 3.28164 13.2119 3.5999C13.2119 3.91816 13.0855 4.22339 12.8604 4.44843C12.6354 4.67347 12.3302 4.7999 12.0119 4.7999H11.9999C11.6816 4.7999 11.3764 4.67347 11.1514 4.44843C10.9263 4.22339 10.7999 3.91816 10.7999 3.5999ZM14.3999 3.5999C14.3999 3.28164 14.5263 2.97642 14.7514 2.75137C14.9764 2.52633 15.2816 2.3999 15.5999 2.3999H15.6119C15.9302 2.3999 16.2354 2.52633 16.4604 2.75137C16.6855 2.97642 16.8119 3.28164 16.8119 3.5999C16.8119 3.91816 16.6855 4.22339 16.4604 4.44843C16.2354 4.67347 15.9302 4.7999 15.6119 4.7999H15.5999C15.2816 4.7999 14.9764 4.67347 14.7514 4.44843C14.5263 4.22339 14.3999 3.91816 14.3999 3.5999Z" fill="currentColor"/>
</svg>
