<svg width="24" height="24" viewBox="0 0 24 24" fill="none" xmlns="http://www.w3.org/2000/svg">
<path fill-rule="evenodd" clip-rule="evenodd" d="M4.8001 4.7999C4.8001 4.16338 5.05295 3.55293 5.50304 3.10285C5.95313 2.65276 6.56358 2.3999 7.2001 2.3999H16.8001C17.4366 2.3999 18.0471 2.65276 18.4972 3.10285C18.9472 3.55293 19.2001 4.16338 19.2001 4.7999V19.1999C19.5184 19.1999 19.8236 19.3263 20.0486 19.5514C20.2737 19.7764 20.4001 20.0816 20.4001 20.3999C20.4001 20.7182 20.2737 21.0234 20.0486 21.2484C19.8236 21.4735 19.5184 21.5999 19.2001 21.5999H15.6001C15.2818 21.5999 14.9766 21.4735 14.7516 21.2484C14.5265 21.0234 14.4001 20.7182 14.4001 20.3999V17.9999C14.4001 17.6816 14.2737 17.3764 14.0486 17.1514C13.8236 16.9263 13.5184 16.7999 13.2001 16.7999H10.8001C10.4818 16.7999 10.1766 16.9263 9.95157 17.1514C9.72653 17.3764 9.6001 17.6816 9.6001 17.9999V20.3999C9.6001 20.7182 9.47367 21.0234 9.24863 21.2484C9.02358 21.4735 8.71836 21.5999 8.4001 21.5999H4.8001C4.48184 21.5999 4.17661 21.4735 3.95157 21.2484C3.72653 21.0234 3.6001 20.7182 3.6001 20.3999C3.6001 20.0816 3.72653 19.7764 3.95157 19.5514C4.17661 19.3263 4.48184 19.1999 4.8001 19.1999V4.7999ZM8.4001 5.9999H10.8001V8.3999H8.4001V5.9999ZM10.8001 10.7999H8.4001V13.1999H10.8001V10.7999ZM13.2001 5.9999H15.6001V8.3999H13.2001V5.9999ZM15.6001 10.7999H13.2001V13.1999H15.6001V10.7999Z" fill="currentColor"/>
</svg>
