<svg width="28" height="28" viewBox="0 0 28 28" fill="none" xmlns="http://www.w3.org/2000/svg">
<g clip-path="url(#clip0_625_1793)">
<rect x="2" y="2" width="23.9998" height="23.9998" rx="11.9999" fill="white"/>
<path fill-rule="evenodd" clip-rule="evenodd" d="M13.9999 25.9998C17.1825 25.9998 20.2347 24.7355 22.4851 22.4851C24.7355 20.2347 25.9998 17.1825 25.9998 13.9999C25.9998 10.8173 24.7355 7.76511 22.4851 5.51469C20.2347 3.26427 17.1825 2 13.9999 2C10.8173 2 7.76511 3.26427 5.51469 5.51469C3.26427 7.76511 2 10.8173 2 13.9999C2 17.1825 3.26427 20.2347 5.51469 22.4851C7.76511 24.7355 10.8173 25.9998 13.9999 25.9998ZM15.4999 9.49994C15.4999 9.10212 15.3419 8.72059 15.0606 8.43929C14.7793 8.15799 14.3977 7.99995 13.9999 7.99995C13.6021 7.99995 13.2206 8.15799 12.9393 8.43929C12.6579 8.72059 12.4999 9.10212 12.4999 9.49994V12.4999H9.49994C9.10212 12.4999 8.72059 12.6579 8.43929 12.9393C8.15799 13.2206 7.99995 13.6021 7.99995 13.9999C7.99995 14.3977 8.15799 14.7793 8.43929 15.0606C8.72059 15.3419 9.10212 15.4999 9.49994 15.4999H12.4999V18.4999C12.4999 18.8977 12.6579 19.2792 12.9393 19.5605C13.2206 19.8418 13.6021 19.9999 13.9999 19.9999C14.3977 19.9999 14.7793 19.8418 15.0606 19.5605C15.3419 19.2792 15.4999 18.8977 15.4999 18.4999V15.4999H18.4999C18.8977 15.4999 19.2792 15.3419 19.5605 15.0606C19.8418 14.7793 19.9999 14.3977 19.9999 13.9999C19.9999 13.6021 19.8418 13.2206 19.5605 12.9393C19.2792 12.6579 18.8977 12.4999 18.4999 12.4999H15.4999V9.49994Z" fill="#4E545E"/>
</g>
<defs>
<clipPath id="clip0_625_1793">
<rect x="2" y="2" width="23.9998" height="23.9998" rx="11.9999" fill="white"/>
</clipPath>
</defs>
</svg>
