<svg width="24" height="24" viewBox="0 0 24 24" fill="none" xmlns="http://www.w3.org/2000/svg">
<path d="M10.5 11.2857C11.4946 11.2857 12.4484 10.9019 13.1517 10.2187C13.8549 9.53558 14.25 8.609 14.25 7.64286C14.25 6.67671 13.8549 5.75014 13.1517 5.06697C12.4484 4.3838 11.4946 4 10.5 4C9.50544 4 8.55161 4.3838 7.84835 5.06697C7.14509 5.75014 6.75 6.67671 6.75 7.64286C6.75 8.609 7.14509 9.53558 7.84835 10.2187C8.55161 10.9019 9.50544 11.2857 10.5 11.2857ZM10.5 13.7143C12.4891 13.7143 14.3968 14.4819 15.8033 15.8482C17.2098 17.2146 18 19.0677 18 21H3C3 19.0677 3.79018 17.2146 5.1967 15.8482C6.60322 14.4819 8.51088 13.7143 10.5 13.7143ZM20.5 8.85714C20.5 8.53509 20.3683 8.22624 20.1339 7.99851C19.8995 7.77079 19.5815 7.64286 19.25 7.64286C18.9185 7.64286 18.6005 7.77079 18.3661 7.99851C18.1317 8.22624 18 8.53509 18 8.85714V10.0714H16.75C16.4185 10.0714 16.1005 10.1994 15.8661 10.4271C15.6317 10.6548 15.5 10.9637 15.5 11.2857C15.5 11.6078 15.6317 11.9166 15.8661 12.1443C16.1005 12.3721 16.4185 12.5 16.75 12.5H18V13.7143C18 14.0363 18.1317 14.3452 18.3661 14.5729C18.6005 14.8006 18.9185 14.9286 19.25 14.9286C19.5815 14.9286 19.8995 14.8006 20.1339 14.5729C20.3683 14.3452 20.5 14.0363 20.5 13.7143V12.5H21.75C22.0815 12.5 22.3995 12.3721 22.6339 12.1443C22.8683 11.9166 23 11.6078 23 11.2857C23 10.9637 22.8683 10.6548 22.6339 10.4271C22.3995 10.1994 22.0815 10.0714 21.75 10.0714H20.5V8.85714Z" fill="currentColor"/>
</svg>
