<svg width="24" height="24" viewBox="0 0 24 24" fill="none" xmlns="http://www.w3.org/2000/svg">
<path d="M21.117 7.62477C20.9233 7.60239 20.7272 7.63715 20.553 7.72477L16 9.99977V13.9998L20.553 16.2748C20.7053 16.3509 20.8744 16.3868 21.0445 16.3792C21.2145 16.3717 21.3799 16.3208 21.5248 16.2315C21.6697 16.1422 21.7894 16.0173 21.8725 15.8688C21.9557 15.7203 21.9996 15.553 22 15.3828V8.61677C21.9997 8.37201 21.9097 8.13585 21.747 7.95302C21.5842 7.7702 21.3601 7.65341 21.117 7.62477Z" fill="currentColor"/>
<path d="M6 5C4.355 5 3 6.355 3 8V16C3 17.645 4.355 19 6 19H14C15.645 19 17 17.645 17 16V8C17 6.355 15.645 5 14 5H6Z" fill="currentColor"/>
</svg>
