<svg width="32" height="32" viewBox="0 0 32 32" fill="none" xmlns="http://www.w3.org/2000/svg">
<path d="M3.19995 16.8002C3.19995 16.485 3.26203 16.1729 3.38264 15.8818C3.50325 15.5906 3.68003 15.326 3.90289 15.1031C4.12576 14.8803 4.39033 14.7035 4.68151 14.5829C4.97269 14.4623 5.28478 14.4002 5.59995 14.4002C5.91512 14.4002 6.22721 14.4623 6.51839 14.5829C6.80957 14.7035 7.07415 14.8803 7.29701 15.1031C7.51987 15.326 7.69665 15.5906 7.81726 15.8818C7.93787 16.1729 7.99995 16.485 7.99995 16.8002V26.4002C7.99995 27.0367 7.7471 27.6472 7.29701 28.0972C6.84692 28.5473 6.23647 28.8002 5.59995 28.8002C4.96343 28.8002 4.35298 28.5473 3.90289 28.0972C3.45281 27.6472 3.19995 27.0367 3.19995 26.4002V16.8002ZM9.59995 16.533V25.221C9.59967 25.8157 9.7651 26.3986 10.0777 26.9045C10.3903 27.4104 10.8376 27.8192 11.3696 28.085L11.4496 28.125C12.3374 28.5687 13.3162 28.7999 14.3088 28.8002H22.9744C23.7144 28.8005 24.4317 28.5443 25.004 28.0752C25.5764 27.6061 25.9685 26.9531 26.1136 26.2274L28.0336 16.6274C28.1263 16.1632 28.115 15.6842 28.0003 15.2249C27.8856 14.7656 27.6704 14.3375 27.3703 13.9714C27.0702 13.6053 26.6926 13.3104 26.2647 13.1079C25.8368 12.9053 25.3693 12.8002 24.896 12.8002H19.2V6.4002C19.2 5.5515 18.8628 4.73757 18.2627 4.13745C17.6626 3.53734 16.8486 3.2002 16 3.2002C15.5756 3.2002 15.1686 3.36877 14.8686 3.66882C14.5685 3.96888 14.4 4.37585 14.4 4.8002V5.8674C14.4 7.25216 13.9508 8.59958 13.12 9.7074L10.88 12.693C10.0491 13.8008 9.59995 15.1482 9.59995 16.533Z" fill="currentColor"/>
</svg>
