<svg width="44" height="44" viewBox="0 0 44 44" fill="none" xmlns="http://www.w3.org/2000/svg">
<rect width="44" height="44" rx="22" fill="#0963F4"/>
<path d="M21.9999 11C19.8389 11 17.7664 11.8692 16.2383 13.4164C14.7102 14.9635 13.8518 17.062 13.8518 19.25C13.8518 21.438 14.7102 23.5365 16.2383 25.0836C17.7664 26.6308 19.8389 27.5 21.9999 27.5C24.1609 27.5 26.2335 26.6308 27.7615 25.0836C29.2896 23.5365 30.1481 21.438 30.1481 19.25C30.1481 17.062 29.2896 14.9635 27.7615 13.4164C26.2335 11.8692 24.1609 11 21.9999 11ZM8.96288 44H35.037C35.9333 44 36.6666 43.2575 36.6666 42.35V40.7C36.6666 34.331 31.5495 29.15 25.2592 29.15H18.7407C12.4503 29.15 7.33325 34.331 7.33325 40.7V42.35C7.33325 43.2575 8.06659 44 8.96288 44Z" fill="#EBEFF7"/>
</svg>
