<svg width="32" height="32" viewBox="0 0 32 32" fill="none" xmlns="http://www.w3.org/2000/svg">
<path d="M27.9152 17.4306C28.1807 17.2976 28.4038 17.0933 28.5598 16.8407C28.7157 16.5881 28.7983 16.2971 28.7983 16.0002C28.7983 15.7033 28.7157 15.4123 28.5598 15.1597C28.4038 14.9071 28.1807 14.7028 27.9152 14.5698L5.51525 3.36981C5.23751 3.23084 4.92532 3.1757 4.61678 3.21113C4.30824 3.24655 4.01668 3.37101 3.77767 3.56931C3.53865 3.76762 3.36251 4.03119 3.27074 4.32789C3.17897 4.62459 3.17553 4.94159 3.26085 5.24021L5.54725 13.2402C5.64288 13.5746 5.84485 13.8687 6.12258 14.078C6.40031 14.2873 6.73868 14.4004 7.08645 14.4002L14.4 14.4002C14.8244 14.4002 15.2314 14.5688 15.5314 14.8688C15.8315 15.1689 16 15.5759 16 16.0002C16 16.4246 15.8315 16.8315 15.5314 17.1316C15.2314 17.4316 14.8244 17.6002 14.4 17.6002H7.08645C6.73868 17.6 6.40031 17.7131 6.12258 17.9224C5.84485 18.1317 5.64288 18.4258 5.54725 18.7602L3.26245 26.7602C3.17696 27.0587 3.1802 27.3757 3.27175 27.6724C3.3633 27.9691 3.53922 28.2328 3.77805 28.4312C4.01688 28.6297 4.3083 28.7544 4.61676 28.7901C4.92523 28.8257 5.23742 28.7709 5.51525 28.6322L27.9152 17.4306Z" fill="currentColor"/>
</svg>
