<svg width="32" height="32" viewBox="0 0 32 32" fill="none" xmlns="http://www.w3.org/2000/svg">
<rect width="32" height="32" rx="16" fill="#C7CEDB"/>
<path d="M16 8C14.4283 8 12.9211 8.63214 11.8097 9.75736C10.6984 10.8826 10.0741 12.4087 10.0741 14C10.0741 15.5913 10.6984 17.1174 11.8097 18.2426C12.9211 19.3679 14.4283 20 16 20C17.5716 20 19.0789 19.3679 20.1903 18.2426C21.3016 17.1174 21.9259 15.5913 21.9259 14C21.9259 12.4087 21.3016 10.8826 20.1903 9.75736C19.0789 8.63214 17.5716 8 16 8ZM6.51851 32H25.4815C26.1333 32 26.6667 31.46 26.6667 30.8V29.6C26.6667 24.968 22.9452 21.2 18.3704 21.2H13.6296C9.05481 21.2 5.33333 24.968 5.33333 29.6V30.8C5.33333 31.46 5.86666 32 6.51851 32Z" fill="#EBEFF7"/>
</svg>
