<svg width="24" height="24" viewBox="0 0 24 24" fill="none" xmlns="http://www.w3.org/2000/svg">
<path d="M7.1999 12.0001C7.1999 12.6366 6.94705 13.2471 6.49696 13.6972C6.04687 14.1472 5.43642 14.4001 4.7999 14.4001C4.16338 14.4001 3.55293 14.1472 3.10285 13.6972C2.65276 13.2471 2.3999 12.6366 2.3999 12.0001C2.3999 11.3636 2.65276 10.7531 3.10285 10.303C3.55293 9.85295 4.16338 9.6001 4.7999 9.6001C5.43642 9.6001 6.04687 9.85295 6.49696 10.303C6.94705 10.7531 7.1999 11.3636 7.1999 12.0001ZM14.3999 12.0001C14.3999 12.6366 14.147 13.2471 13.697 13.6972C13.2469 14.1472 12.6364 14.4001 11.9999 14.4001C11.3634 14.4001 10.7529 14.1472 10.3028 13.6972C9.85276 13.2471 9.5999 12.6366 9.5999 12.0001C9.5999 11.3636 9.85276 10.7531 10.3028 10.303C10.7529 9.85295 11.3634 9.6001 11.9999 9.6001C12.6364 9.6001 13.2469 9.85295 13.697 10.303C14.147 10.7531 14.3999 11.3636 14.3999 12.0001ZM19.1999 14.4001C19.8364 14.4001 20.4469 14.1472 20.897 13.6972C21.347 13.2471 21.5999 12.6366 21.5999 12.0001C21.5999 11.3636 21.347 10.7531 20.897 10.303C20.4469 9.85295 19.8364 9.6001 19.1999 9.6001C18.5634 9.6001 17.9529 9.85295 17.5028 10.303C17.0528 10.7531 16.7999 11.3636 16.7999 12.0001C16.7999 12.6366 17.0528 13.2471 17.5028 13.6972C17.9529 14.1472 18.5634 14.4001 19.1999 14.4001Z" fill="#1B1C1C"/>
</svg>
