<svg width="32" height="32" viewBox="0 0 32 32" fill="none" xmlns="http://www.w3.org/2000/svg">
<rect width="32" height="32" rx="16" fill="#C7CEDB"/>
<path d="M15.9999 8C14.4283 8 12.921 8.63214 11.8097 9.75736C10.6983 10.8826 10.074 12.4087 10.074 14C10.074 15.5913 10.6983 17.1174 11.8097 18.2426C12.921 19.3679 14.4283 20 15.9999 20C17.5716 20 19.0789 19.3679 20.1902 18.2426C21.3015 17.1174 21.9258 15.5913 21.9258 14C21.9258 12.4087 21.3015 10.8826 20.1902 9.75736C19.0789 8.63214 17.5716 8 15.9999 8ZM6.51844 32H25.4814C26.1332 32 26.6666 31.46 26.6666 30.8V29.6C26.6666 24.968 22.9451 21.2 18.3703 21.2H13.6295C9.05473 21.2 5.33325 24.968 5.33325 29.6V30.8C5.33325 31.46 5.86659 32 6.51844 32Z" fill="#EBEFF7"/>
</svg>
