<svg width="16" height="16" viewBox="0 0 16 16" fill="none" xmlns="http://www.w3.org/2000/svg">
<path d="M2.125 1.62451C2.19091 1.62567 2.25617 1.63973 2.31641 1.6665C2.37552 1.69284 2.42914 1.73087 2.47363 1.77783L14.2334 13.5366C14.2789 13.5822 14.3152 13.6363 14.3398 13.6958C14.3646 13.7555 14.377 13.8197 14.377 13.8843C14.3769 13.9488 14.3646 14.0131 14.3398 14.0728C14.3152 14.1323 14.2789 14.1864 14.2334 14.2319C14.1877 14.2776 14.1329 14.3137 14.0732 14.3384C14.0135 14.3631 13.9494 14.3765 13.8848 14.3765C13.8204 14.3764 13.7568 14.363 13.6973 14.3384C13.6376 14.3137 13.5828 14.2776 13.5371 14.2319L11.3301 12.0249H9.92969C9.90206 12.4885 9.71049 12.928 9.38379 13.2612C9.03364 13.6183 8.55851 13.8256 8.05859 13.8394C7.55883 13.8531 7.07327 13.6726 6.7041 13.3354C6.33489 12.9981 6.11046 12.5299 6.0791 12.0308V12.0239H3.44629C3.32811 12.024 3.21143 11.9971 3.10547 11.9448C2.99929 11.8923 2.9058 11.8154 2.83398 11.7212C2.76229 11.6271 2.7139 11.517 2.69141 11.4009C2.66898 11.2848 2.6737 11.1653 2.70508 11.0513L2.70605 11.0454L2.72852 10.981L2.72949 10.9761L3.46289 9.08838L3.46387 6.69873L3.47168 6.42236C3.50838 5.80487 3.67198 5.20105 3.95215 4.64795L1.77832 2.47314V2.47217C1.73158 2.42777 1.69324 2.37483 1.66699 2.31592C1.64022 2.25568 1.62616 2.19042 1.625 2.12451C1.62387 2.05866 1.63554 1.99321 1.66016 1.93213C1.6849 1.87087 1.72184 1.81478 1.76855 1.76807C1.81527 1.72135 1.87136 1.68441 1.93262 1.65967C1.9937 1.63505 2.05915 1.62338 2.125 1.62451ZM7.06543 12.0249C7.08813 12.2326 7.17873 12.428 7.3252 12.5796C7.495 12.7553 7.7265 12.8586 7.9707 12.8677C8.2148 12.8767 8.45341 12.791 8.63574 12.6284C8.81056 12.4724 8.91992 12.2571 8.94531 12.0249H7.06543ZM4.69531 5.39014C4.54609 5.76831 4.4629 6.16961 4.44922 6.57666L4.44727 6.70068V9.18311C4.44694 9.22321 4.44118 9.26329 4.43164 9.30225L4.43066 9.30908L4.33496 9.27881L4.42969 9.30908L4.41504 9.35498L4.41406 9.36084L4.32031 9.32471L4.41309 9.36084L3.75977 11.0405H10.3457L4.69531 5.39014ZM12.5479 9.09033L13.2803 10.9771V10.978C13.2915 11.0074 13.301 11.0374 13.3086 11.0679L13.3262 11.1606L13.3271 11.1665L13.332 11.2495V11.2554C13.332 11.361 13.3107 11.4627 13.2715 11.5552L13.2139 11.6919L12.0664 10.5444L12.0508 10.5298L12.0439 10.5103L11.5977 9.36084V9.35986C11.5836 9.32266 11.5736 9.28406 11.5684 9.24463L11.5674 9.23682L11.5654 9.18799L11.5645 9.18213V6.69873C11.5644 6.01585 11.3685 5.34722 10.999 4.77295C10.6294 4.19859 10.1021 3.74244 9.48047 3.45947C8.85892 3.17658 8.16894 3.07881 7.49316 3.17725C6.81732 3.27571 6.18399 3.5666 5.66895 4.01514L5.59863 4.07666L4.90234 3.38037L4.98145 3.31006C5.62676 2.73424 6.42271 2.35415 7.27637 2.21533C8.12992 2.07653 9.00536 2.1843 9.7998 2.52588C10.5943 2.86755 11.2753 3.42893 11.7617 4.14404C12.1873 4.76966 12.4482 5.49036 12.5244 6.23975L12.5459 6.56299V6.56396L12.5479 6.69775V9.09033Z" fill="#0A1014" stroke="#0A1014" stroke-width="0.2"/>
</svg>
