<svg width="20" height="22" viewBox="0 0 20 22" fill="none" xmlns="http://www.w3.org/2000/svg">
<path d="M9.8623 0.149414C10.3877 0.149414 10.8971 0.331397 11.3037 0.664062L18.7148 6.70703L18.9072 6.88281C19.0887 7.06882 19.2381 7.28443 19.3496 7.52051C19.4983 7.83549 19.5758 8.18 19.5752 8.52832V19.4883C19.5752 20.7764 18.547 21.8241 17.2734 21.8242H14.2637C12.9901 21.8241 11.9619 20.7764 11.9619 19.4883V14.2988C11.9619 13.9767 11.7067 13.7199 11.3955 13.7197H8.3291C8.01839 13.7199 7.7627 13.9768 7.7627 14.2988V19.4883C7.76266 20.7764 6.7345 21.8241 5.46094 21.8242H2.45117C1.1782 21.8241 0.149448 20.7765 0.149414 19.4883V8.52832C0.148763 8.18 0.22629 7.83549 0.375 7.52051C0.523706 7.20566 0.740496 6.92779 1.00977 6.70703L8.4209 0.664062C8.82755 0.331395 9.33691 0.149415 9.8623 0.149414ZM9.8623 1.90723C9.73345 1.90723 9.60857 1.95168 9.50879 2.0332H9.50781L2.09766 8.0752C2.03072 8.12994 1.97635 8.19914 1.93945 8.27734C1.90262 8.35548 1.88348 8.44096 1.88379 8.52734V19.4883C1.88382 19.8105 2.13991 20.0673 2.45117 20.0674H5.46094C5.77172 20.0673 6.02829 19.8104 6.02832 19.4883V14.2988C6.02832 13.0107 7.0562 11.9621 8.3291 11.9619H11.3955C12.6684 11.9621 13.6963 13.0107 13.6963 14.2988V19.4883C13.6963 19.8105 13.9524 20.0673 14.2637 20.0674H17.2734C17.5842 20.0673 17.8408 19.8104 17.8408 19.4883V8.52734C17.841 8.441 17.822 8.35542 17.7852 8.27734C17.7483 8.19926 17.6938 8.13085 17.627 8.07617L10.2168 2.0332H10.2158C10.116 1.95168 9.99116 1.90723 9.8623 1.90723Z" fill="#0A1014" stroke="#0A1014" stroke-width="0.3"/>
</svg>
