<svg width="24" height="24" viewBox="0 0 24 24" fill="none" xmlns="http://www.w3.org/2000/svg">
<path d="M11.9961 2.21875C17.4812 2.21883 22.2109 6.00639 22.2109 10.9971C22.2109 11.1608 22.2054 11.3233 22.1953 11.4844H20.2881C20.3021 11.3229 20.3115 11.1605 20.3115 10.9971C20.3115 7.3432 16.7445 4.11922 11.9961 4.11914C7.2475 4.11914 3.68068 7.34208 3.68066 10.9971C3.68066 12.4384 4.21839 13.7901 5.16504 14.9141C5.35382 15.1383 5.42918 15.437 5.36816 15.7236L4.7041 18.8389L7.3418 17.1914L7.44238 17.1367C7.68356 17.0238 7.96306 17.0169 8.21191 17.1211C9.40914 17.6225 10.6952 17.8783 11.9932 17.874H11.9961C12.2376 17.874 12.4759 17.863 12.7109 17.8467V19.749C12.4749 19.7633 12.2373 19.7734 11.998 19.7734L11.999 19.7744L11.9971 19.7734L11.9961 19.7744V19.7734C10.612 19.7776 9.24038 19.5329 7.94434 19.0547L3.8125 21.6367C3.48923 21.8386 3.07684 21.828 2.76465 21.6094C2.45242 21.3907 2.30159 21.0066 2.38086 20.6338L3.41602 15.7637C2.38966 14.402 1.78027 12.766 1.78027 10.9971C1.78029 6.0051 6.51101 2.21875 11.9961 2.21875Z" fill="#0A1014"/>
<path d="M17.2725 10.6821C17.797 10.6823 18.2227 11.1078 18.2227 11.6323V14.228H20.8174C21.3421 14.228 21.7676 14.6536 21.7676 15.1782C21.7674 15.7028 21.342 16.1284 20.8174 16.1284H18.2227V18.7231C18.2227 19.2477 17.797 19.6732 17.2725 19.6733C16.7478 19.6733 16.3223 19.2478 16.3223 18.7231V16.1284H13.7266C13.202 16.1284 12.7765 15.7028 12.7764 15.1782C12.7764 14.6536 13.2019 14.228 13.7266 14.228H16.3223V11.6323C16.3223 11.1077 16.7478 10.6821 17.2725 10.6821Z" fill="#0A1014"/>
</svg>
