<svg width="24" height="24" viewBox="0 0 24 24" fill="none" xmlns="http://www.w3.org/2000/svg">
<path fill-rule="evenodd" clip-rule="evenodd" d="M12.001 1.95947C12.5531 1.95965 13.001 2.4073 13.001 2.95947V11.0015H21.042C21.5943 11.0015 22.042 11.4492 22.042 12.0015C22.0416 12.5534 21.594 13.0015 21.042 13.0015H13.001V21.0425C13.0007 21.5944 12.5529 22.0423 12.001 22.0425C11.4489 22.0425 11.0012 21.5945 11.001 21.0425V13.0015H2.95898C2.40697 13.0015 1.95942 12.5534 1.95898 12.0015C1.95898 11.4492 2.4067 11.0015 2.95898 11.0015H11.001V2.95947C11.001 2.40719 11.4487 1.95947 12.001 1.95947Z" fill="#0A1014"/>
</svg>
