<svg width="8" height="8" viewBox="0 0 8 8" fill="none" xmlns="http://www.w3.org/2000/svg">
<g clip-path="url(#clip0_309_3031)">
<path fill-rule="evenodd" clip-rule="evenodd" d="M0.121125 0.704158C0.0482411 0.62594 0.00856229 0.522485 0.0104483 0.41559C0.0123344 0.308695 0.055638 0.206704 0.131236 0.131106C0.206835 0.0555079 0.308825 0.0122042 0.41572 0.0103182C0.522616 0.00843214 0.62607 0.048111 0.704288 0.120995L2.85539 2.27099L6.69601 0.645842C6.7465 0.624325 6.80227 0.618402 6.85615 0.628835C6.91003 0.639268 6.95956 0.66558 6.99837 0.704387C7.03717 0.743194 7.06348 0.792723 7.07392 0.846604C7.08435 0.900485 7.07843 0.956255 7.05691 1.00674L5.43121 4.84681L7.58121 6.99736C7.62175 7.03514 7.65426 7.08069 7.67681 7.1313C7.69937 7.18192 7.71149 7.23656 7.71247 7.29196C7.71345 7.34736 7.70326 7.40239 7.6825 7.45377C7.66175 7.50515 7.63086 7.55182 7.59168 7.591C7.5525 7.63018 7.50583 7.66107 7.45445 7.68182C7.40307 7.70257 7.34804 7.71277 7.29264 7.71179C7.23724 7.71081 7.1826 7.69868 7.13199 7.67613C7.08137 7.65358 7.03582 7.62106 6.99804 7.58053L0.121125 0.704158ZM0.167889 3.40761L1.4635 2.85966L4.84254 6.2387L4.29459 7.53431C4.27414 7.58278 4.24022 7.62436 4.19686 7.65414C4.1535 7.68392 4.10251 7.70063 4.04993 7.70231C3.99736 7.70399 3.9454 7.69056 3.90023 7.66361C3.85505 7.63666 3.81855 7.59733 3.79505 7.55027L2.62157 5.20331C2.59498 5.15025 2.55195 5.10722 2.49889 5.08063L0.151934 3.90715C0.104894 3.8836 0.065593 3.84706 0.0386907 3.80185C0.0117884 3.75664 -0.00158707 3.70467 0.000150059 3.65209C0.00188719 3.59952 0.0186641 3.54854 0.0484917 3.50521C0.0783193 3.46188 0.119397 3.42801 0.167889 3.40761Z" fill="#FF000F"/>
</g>
<defs>
<clipPath id="clip0_309_3031">
<rect width="7.70215" height="7.70215" fill="white"/>
</clipPath>
</defs>
</svg>
