<svg width="24" height="24" viewBox="0 0 24 24" fill="none" xmlns="http://www.w3.org/2000/svg">
<path fill-rule="evenodd" clip-rule="evenodd" d="M10.1549 3.4873C8.38684 3.4873 6.69115 4.18968 5.4409 5.43993C4.19066 6.69017 3.48828 8.38586 3.48828 10.154C3.48828 11.9221 4.19066 13.6178 5.4409 14.868C6.69115 16.1183 8.38684 16.8206 10.1549 16.8206C11.9231 16.8206 13.6188 16.1183 14.869 14.868C16.1192 13.6178 16.8216 11.9221 16.8216 10.154C16.8216 8.38586 16.1192 6.69017 14.869 5.43993C13.6188 4.18968 11.9231 3.4873 10.1549 3.4873ZM1.48828 10.154C1.48828 7.85543 2.40137 5.65103 4.02669 4.02571C5.652 2.4004 7.85641 1.4873 10.1549 1.4873C12.4535 1.4873 14.6579 2.4004 16.2832 4.02571C17.9085 5.65103 18.8216 7.85543 18.8216 10.154C18.8216 12.4525 17.9085 14.6569 16.2832 16.2822C14.6579 17.9075 12.4535 18.8206 10.1549 18.8206C7.85641 18.8206 5.652 17.9075 4.02669 16.2822C2.40137 14.6569 1.48828 12.4525 1.48828 10.154Z" fill="#0A1014"/>
<path fill-rule="evenodd" clip-rule="evenodd" d="M15.4487 15.4472C15.6362 15.26 15.8904 15.1548 16.1554 15.1548C16.4204 15.1548 16.6745 15.26 16.862 15.4472L22.1954 20.7806C22.2936 20.8721 22.3724 20.9825 22.4271 21.1052C22.4817 21.2279 22.5111 21.3603 22.5135 21.4945C22.5159 21.6288 22.4912 21.7622 22.4409 21.8867C22.3906 22.0112 22.3157 22.1243 22.2208 22.2193C22.1258 22.3142 22.0127 22.3891 21.8882 22.4394C21.7636 22.4897 21.6303 22.5144 21.496 22.512C21.3617 22.5097 21.2293 22.4803 21.1067 22.4256C20.984 22.371 20.8736 22.2922 20.782 22.1939L15.4487 16.8606C15.2614 16.6731 15.1562 16.4189 15.1562 16.1539C15.1562 15.8889 15.2614 15.6347 15.4487 15.4472Z" fill="#0A1014"/>
</svg>
