<svg width="16" height="16" viewBox="0 0 16 16" fill="none" xmlns="http://www.w3.org/2000/svg">
<path fill-rule="evenodd" clip-rule="evenodd" d="M7.12352 2.70406C6.03403 2.70406 4.98916 3.13686 4.21877 3.90725C3.44838 4.67763 3.01558 5.7225 3.01558 6.81199C3.01558 7.90149 3.44838 8.94636 4.21877 9.71674C4.98916 10.4871 6.03403 10.9199 7.12352 10.9199C8.21301 10.9199 9.25788 10.4871 10.0283 9.71674C10.7987 8.94636 11.2315 7.90149 11.2315 6.81199C11.2315 5.7225 10.7987 4.67763 10.0283 3.90725C9.25788 3.13686 8.21301 2.70406 7.12352 2.70406ZM1.7832 6.81199C1.7832 5.39565 2.34584 4.03732 3.34734 3.03582C4.34885 2.03432 5.70718 1.47168 7.12352 1.47168C8.53986 1.47168 9.89819 2.03432 10.8997 3.03582C11.9012 4.03732 12.4638 5.39565 12.4638 6.81199C12.4638 8.22833 11.9012 9.58666 10.8997 10.5882C9.89819 11.5897 8.53986 12.1523 7.12352 12.1523C5.70718 12.1523 4.34885 11.5897 3.34734 10.5882C2.34584 9.58666 1.7832 8.22833 1.7832 6.81199Z" fill="#68717B"/>
<path fill-rule="evenodd" clip-rule="evenodd" d="M10.3853 10.0738C10.5008 9.95837 10.6574 9.89355 10.8207 9.89355C10.984 9.89355 11.1406 9.95837 11.2562 10.0738L14.5425 13.3601C14.6031 13.4165 14.6516 13.4845 14.6853 13.5601C14.719 13.6357 14.7371 13.7173 14.7385 13.8001C14.74 13.8828 14.7248 13.965 14.6938 14.0417C14.6628 14.1184 14.6167 14.1881 14.5582 14.2466C14.4996 14.3051 14.4299 14.3513 14.3532 14.3823C14.2765 14.4133 14.1943 14.4285 14.1116 14.427C14.0288 14.4256 13.9472 14.4074 13.8717 14.3738C13.7961 14.3401 13.728 14.2915 13.6716 14.231L10.3853 10.9446C10.2699 10.8291 10.2051 10.6725 10.2051 10.5092C10.2051 10.3459 10.2699 10.1893 10.3853 10.0738Z" fill="#68717B"/>
</svg>
