<svg width="24" height="24" viewBox="0 0 24 24" fill="none" xmlns="http://www.w3.org/2000/svg">
<path d="M19.4993 2.68359C20.1136 2.68361 20.7172 2.84534 21.2492 3.15254C21.7813 3.45973 22.2231 3.90157 22.5303 4.43363C22.8375 4.9657 22.9992 5.56925 22.9992 6.18362C22.9992 6.79799 22.8374 7.40153 22.5303 7.93359L15.0303 20.9236C14.6841 21.5225 14.1682 22.0054 13.5477 22.3113C12.9273 22.6172 12.2301 22.7324 11.5442 22.6423C10.8583 22.5522 10.2145 22.2609 9.6941 21.8051C9.17369 21.3494 8.80001 20.7496 8.62025 20.0816L6.85225 13.4876L2.02425 8.65759C1.53506 8.16806 1.20198 7.54448 1.06711 6.86568C0.932237 6.18689 1.00163 5.48334 1.26652 4.84398C1.5314 4.20461 1.97989 3.65812 2.5553 3.27359C3.1307 2.88906 3.80719 2.68374 4.49925 2.68359H19.4993ZM4.49925 4.68359C4.20277 4.68385 3.91302 4.77197 3.66659 4.93681C3.42016 5.10165 3.2281 5.33582 3.11468 5.60975C3.00126 5.88367 2.97155 6.18507 3.02932 6.47587C3.08709 6.76666 3.22974 7.03382 3.43925 7.24359L7.91325 11.7186L14.8903 7.69059C15.1198 7.56008 15.3917 7.52566 15.6465 7.59484C15.9014 7.66403 16.1185 7.83121 16.2505 8.0599C16.3826 8.28859 16.4188 8.56022 16.3513 8.81551C16.2838 9.07081 16.1181 9.28904 15.8903 9.42259L8.91325 13.4516L10.5513 19.5616C10.6283 19.8479 10.7884 20.1049 11.0115 20.3002C11.2345 20.4955 11.5103 20.6203 11.8043 20.659C12.0982 20.6976 12.397 20.6483 12.6629 20.5172C12.9288 20.3861 13.1499 20.1792 13.2983 19.9226L20.7983 6.93359C20.9299 6.70557 20.9992 6.44691 20.9992 6.1836C20.9992 5.9203 20.9299 5.66164 20.7983 5.43361C20.6666 5.20558 20.4773 5.01623 20.2492 4.88457C20.0212 4.75291 19.7626 4.6836 19.4993 4.68359H4.49925Z" fill="#0A1014"/>
</svg>
