<svg width="24" height="24" viewBox="0 0 24 24" fill="none" xmlns="http://www.w3.org/2000/svg">
<rect x="10.2349" y="13.7648" width="8.23542" height="8.23542" rx="1.76482" transform="rotate(90 10.2349 13.7648)" stroke="black" stroke-width="1.5" stroke-linecap="round"/>
<rect x="5.52734" y="17.2941" width="1.17649" height="1.17649" stroke="black" stroke-width="1.5" stroke-linecap="round"/>
<rect x="13.7637" y="20.8237" width="1.17649" height="1.17649" stroke="black" stroke-width="1.5" stroke-linecap="round"/>
<rect x="17.2944" y="17.2941" width="1.17649" height="1.17649" stroke="black" stroke-width="1.5" stroke-linecap="round"/>
<rect x="13.7637" y="13.7648" width="1.17649" height="1.17649" stroke="black" stroke-width="1.5" stroke-linecap="round"/>
<rect x="20.8213" y="17.2941" width="1.17649" height="1.17649" stroke="black" stroke-width="1.5" stroke-linecap="round"/>
<rect x="20.8213" y="13.7648" width="1.17649" height="1.17649" stroke="black" stroke-width="1.5" stroke-linecap="round"/>
<rect x="20.8213" y="20.8237" width="1.17649" height="1.17649" stroke="black" stroke-width="1.5" stroke-linecap="round"/>
<rect x="10.2349" y="1.99969" width="8.23542" height="8.23542" rx="1.76482" transform="rotate(90 10.2349 1.99969)" stroke="black" stroke-width="1.5" stroke-linecap="round"/>
<rect width="1.17649" height="1.17649" transform="matrix(-1 0 0 1 6.7041 5.52924)" stroke="black" stroke-width="1.5" stroke-linecap="round"/>
<rect x="21.9985" y="1.99969" width="8.23542" height="8.23542" rx="1.76482" transform="rotate(90 21.9985 1.99969)" stroke="black" stroke-width="1.5" stroke-linecap="round"/>
<rect x="17.2939" y="5.52924" width="1.17649" height="1.17649" stroke="black" stroke-width="1.5" stroke-linecap="round"/>
</svg>
