<svg width="28" height="28" viewBox="0 0 28 28" fill="none" xmlns="http://www.w3.org/2000/svg">
<path d="M15.6684 17.5001H5.1334C3.01007 17.5001 1.65673 15.2251 2.6834 13.3584L5.40173 8.41172L7.94507 3.78005C9.00673 1.85505 11.7834 1.85505 12.8451 3.78005L15.4001 8.41172L16.6251 10.6401L18.1184 13.3584C19.1451 15.2251 17.7917 17.5001 15.6684 17.5001Z" stroke="#959393" stroke-width="2" stroke-linecap="round" stroke-linejoin="round"/>
<path d="M25.6667 18.0833C25.6667 22.2717 22.2717 25.6667 18.0833 25.6667C13.895 25.6667 10.5 22.2717 10.5 18.0833C10.5 17.885 10.5117 17.6983 10.5233 17.5H15.6683C17.7917 17.5 19.145 15.225 18.1183 13.3583L16.625 10.64C17.0917 10.5467 17.5817 10.5 18.0833 10.5C22.2717 10.5 25.6667 13.895 25.6667 18.0833Z" stroke="#959393" stroke-width="2" stroke-linecap="round" stroke-linejoin="round"/>
</svg>
