<svg width="40" height="40" viewBox="0 0 40 40" fill="none" xmlns="http://www.w3.org/2000/svg">
<rect width="40" height="40" rx="20" fill="white"/>
<path d="M26.0001 15.16C25.9401 15.15 25.8701 15.15 25.8101 15.16C24.4301 15.11 23.3301 13.98 23.3301 12.58C23.3301 11.15 24.4801 10 25.9101 10C27.3401 10 28.4901 11.16 28.4901 12.58C28.4801 13.98 27.3801 15.11 26.0001 15.16Z" stroke="#1DAA61" stroke-width="2" stroke-linecap="round" stroke-linejoin="round"/>
<path d="M24.9699 22.44C26.3399 22.67 27.8499 22.43 28.9099 21.72C30.3199 20.78 30.3199 19.24 28.9099 18.3C27.8399 17.59 26.3099 17.35 24.9399 17.59" stroke="#1DAA61" stroke-width="2" stroke-linecap="round" stroke-linejoin="round"/>
<path d="M13.97 15.16C14.03 15.15 14.1 15.15 14.16 15.16C15.54 15.11 16.64 13.98 16.64 12.58C16.64 11.15 15.49 10 14.06 10C12.63 10 11.48 11.16 11.48 12.58C11.49 13.98 12.59 15.11 13.97 15.16Z" stroke="#1DAA61" stroke-width="2" stroke-linecap="round" stroke-linejoin="round"/>
<path d="M14.9999 22.44C13.6299 22.67 12.1199 22.43 11.0599 21.72C9.64994 20.78 9.64994 19.24 11.0599 18.3C12.1299 17.59 13.6599 17.35 15.0299 17.59" stroke="#1DAA61" stroke-width="2" stroke-linecap="round" stroke-linejoin="round"/>
<path d="M20.0001 22.63C19.9401 22.62 19.8701 22.62 19.8101 22.63C18.4301 22.58 17.3301 21.45 17.3301 20.05C17.3301 18.62 18.4801 17.47 19.9101 17.47C21.3401 17.47 22.4901 18.63 22.4901 20.05C22.4801 21.45 21.3801 22.59 20.0001 22.63Z" stroke="#1DAA61" stroke-width="2" stroke-linecap="round" stroke-linejoin="round"/>
<path d="M17.0902 25.78C15.6802 26.72 15.6802 28.26 17.0902 29.2C18.6902 30.27 21.3102 30.27 22.9102 29.2C24.3202 28.26 24.3202 26.72 22.9102 25.78C21.3202 24.72 18.6902 24.72 17.0902 25.78Z" stroke="#1DAA61" stroke-width="2" stroke-linecap="round" stroke-linejoin="round"/>
</svg>
