<svg width="24" height="24" viewBox="0 0 24 24" fill="none" xmlns="http://www.w3.org/2000/svg">
<path d="M12 12C14.7614 12 17 9.76142 17 7C17 4.23858 14.7614 2 12 2C9.23858 2 7 4.23858 7 7C7 9.76142 9.23858 12 12 12Z" stroke="#1DAA61" stroke-width="2" stroke-linecap="round" stroke-linejoin="round"/>
<path d="M3.41016 22C3.41016 18.13 7.26015 15 12.0002 15C12.9602 15 13.8902 15.13 14.7602 15.37" stroke="#1DAA61" stroke-width="2" stroke-linecap="round" stroke-linejoin="round"/>
<path d="M18 13.4004C19.3518 13.4004 20.5825 13.984 21.415 14.9287H21.416C22.1505 15.7438 22.5996 16.8251 22.5996 18C22.5996 18.3623 22.5545 18.716 22.4648 19.0605L22.4658 19.0615C22.362 19.5231 22.177 19.9716 21.9346 20.3662L21.9355 20.3672C21.1413 21.7021 19.6791 22.5996 18 22.5996C16.8204 22.5996 15.7525 22.154 14.9473 21.4229V21.4238C14.5994 21.1223 14.2964 20.7619 14.0625 20.3643V20.3633C13.6392 19.6721 13.4004 18.8577 13.4004 18C13.4004 16.7589 13.8948 15.6204 14.7002 14.792L14.8613 14.6338C15.6865 13.8652 16.7933 13.4004 18 13.4004Z" fill="#1DAA61" stroke="white" stroke-width="1.2" stroke-miterlimit="10" stroke-linecap="round" stroke-linejoin="round"/>
<path d="M19.4897 17.98H16.5098" stroke="white" stroke-width="1.2" stroke-miterlimit="10" stroke-linecap="round" stroke-linejoin="round"/>
<path d="M18 16.52V19.51" stroke="white" stroke-width="1.2" stroke-miterlimit="10" stroke-linecap="round" stroke-linejoin="round"/>
</svg>
