<svg width="13" height="10" viewBox="0 0 13 10" fill="none" xmlns="http://www.w3.org/2000/svg">
<path d="M1.07183 8.93333C0.777056 8.93333 0.524722 8.82833 0.314833 8.61833C0.104944 8.40822 0 8.15572 0 7.86083V1.06717C0 0.772167 0.104944 0.520555 0.314833 0.312333C0.524722 0.104111 0.777056 0 1.07183 0H8.809C8.97589 0 9.134 0.0365558 9.28333 0.109667C9.43267 0.182778 9.56256 0.288111 9.673 0.425666L12.7333 4.46667L9.673 8.50767C9.56256 8.64522 9.43267 8.75056 9.28333 8.82367C9.134 8.89678 8.97589 8.93333 8.809 8.93333H1.07183ZM1.07183 8.06667H8.809C8.84322 8.06667 8.87422 8.06028 8.902 8.0475C8.92978 8.03461 8.95433 8.01533 8.97567 7.98967L11.65 4.46667L8.97567 0.943667C8.95433 0.918 8.92978 0.898723 8.902 0.885834C8.87422 0.873056 8.84322 0.866667 8.809 0.866667H1.07183C1.01194 0.866667 0.962778 0.885889 0.924334 0.924334C0.885889 0.962778 0.866667 1.01194 0.866667 1.07183V7.8615C0.866667 7.92139 0.885889 7.97056 0.924334 8.009C0.962778 8.04745 1.01194 8.06667 1.07183 8.06667Z" fill="#171719"/>
</svg>
