<svg width="16" height="16" viewBox="0 0 16 16" fill="none" xmlns="http://www.w3.org/2000/svg">
<path d="M14.6414 5.64039C14.8976 5.89667 14.8976 6.31218 14.6414 6.56847L14.4335 6.77632C14.2695 6.94019 14.0473 7.03241 13.8155 7.0325H12.9399L10.9291 9.04334L10.9284 11.1557C10.9284 11.3877 10.8369 11.6103 10.6729 11.7744L10.465 11.9823C10.2088 12.2385 9.79323 12.2385 9.53694 11.9823L7.68078 10.1261L7.03513 10.7717C6.23914 11.5677 5.2684 12.1676 4.20049 12.5236C4.55653 11.4556 5.15632 10.485 5.95238 9.68899L6.59803 9.04334L4.74187 7.18718C4.70971 7.15503 4.68171 7.12015 4.65762 7.0836C4.48975 6.82892 4.51775 6.48323 4.74187 6.25911L4.94972 6.05126C5.11368 5.88734 5.33592 5.7952 5.56775 5.79507H7.68078L9.69231 3.78354V2.90933C9.69231 2.67737 9.78385 2.45468 9.94781 2.29061L10.1557 2.08276C10.4119 1.82651 10.8274 1.82658 11.0837 2.08276L14.6414 5.64039Z" fill="#AEB0B6"/>
</svg>
