<svg width="24" height="24" viewBox="0 0 24 24" fill="none" xmlns="http://www.w3.org/2000/svg">
<mask id="mask0_4285_618" style="mask-type:alpha" maskUnits="userSpaceOnUse" x="0" y="0" width="24" height="24">
<rect width="24" height="24" fill="#D9D9D9"/>
</mask>
<g mask="url(#mask0_4285_618)">
<path d="M8.09844 6.89581L10.7522 3.42256C10.9134 3.20739 11.1034 3.04981 11.3222 2.94981C11.5412 2.84964 11.7731 2.79956 12.0179 2.79956C12.2626 2.79956 12.4914 2.85148 12.7042 2.95531C12.917 3.05914 13.1055 3.21489 13.2697 3.42256L15.9234 6.89581L20.0079 8.24181C20.3529 8.36881 20.6193 8.56889 20.8069 8.84206C20.9948 9.11506 21.0887 9.41756 21.0887 9.74956C21.0887 9.90906 21.0667 10.067 21.0227 10.2233C20.9785 10.3795 20.905 10.5299 20.8022 10.6746L18.1599 14.2861L18.2599 18.2016C18.2599 18.6604 18.1026 19.0498 17.7879 19.3698C17.4731 19.6896 17.0982 19.8496 16.6632 19.8496C16.652 19.8496 16.5112 19.8277 16.2407 19.7841L11.9984 18.5783L7.75469 19.7851C7.67235 19.8177 7.6001 19.8366 7.53794 19.8418C7.47577 19.847 7.4101 19.8496 7.34094 19.8496C6.90277 19.8496 6.52169 19.6896 6.19769 19.3698C5.87385 19.0498 5.72027 18.6604 5.73694 18.2016L5.83694 14.2861L3.18494 10.6746C3.0811 10.5271 3.00744 10.3812 2.96394 10.2371C2.92027 10.0929 2.89844 9.93848 2.89844 9.77381C2.89844 9.42948 2.9971 9.11639 3.19444 8.83456C3.3916 8.55289 3.66794 8.35214 4.02344 8.23231L8.09844 6.89581ZM8.85044 8.01306L4.42919 9.48606C4.33302 9.51806 4.26735 9.58381 4.23219 9.68331C4.19685 9.78264 4.21127 9.87398 4.27544 9.95731L7.14394 13.9161L7.03694 18.2323C7.03044 18.3413 7.06885 18.4278 7.15219 18.4918C7.23552 18.556 7.32852 18.5721 7.43119 18.5401L11.9984 17.2226L16.5907 18.5151C16.6934 18.5471 16.7864 18.531 16.8697 18.4668C16.953 18.4028 16.9914 18.3163 16.9849 18.2073L16.8504 13.8901L19.7214 9.93231C19.7856 9.84898 19.8 9.75764 19.7647 9.65831C19.7295 9.55881 19.6639 9.49306 19.5677 9.46106L15.1214 8.01306L12.2389 4.28431C12.1811 4.20081 12.1009 4.15906 11.9984 4.15906C11.8959 4.15906 11.8158 4.20081 11.7579 4.28431L8.85044 8.01306Z" fill="#FEFFFF"/>
<path d="M8.85044 8.01306L4.42919 9.48606C4.33302 9.51806 4.26735 9.58381 4.23219 9.68331C4.19685 9.78264 4.21127 9.87398 4.27544 9.95731L7.14394 13.9161L7.03694 18.2323C7.03044 18.3413 7.06885 18.4278 7.15219 18.4918C7.23552 18.556 7.32852 18.5721 7.43119 18.5401L11.9984 17.2226L16.5907 18.5151C16.6934 18.5471 16.7864 18.531 16.8697 18.4668C16.953 18.4028 16.9914 18.3163 16.9849 18.2073L16.8504 13.8901L19.7214 9.93231C19.7856 9.84898 19.8 9.75764 19.7647 9.65831C19.7295 9.55881 19.6639 9.49306 19.5677 9.46106L15.1214 8.01306L12.2389 4.28431C12.1811 4.20081 12.1009 4.15906 11.9984 4.15906C11.8959 4.15906 11.8158 4.20081 11.7579 4.28431L8.85044 8.01306Z" fill="#FEFFFF"/>
</g>
</svg>
