<svg width="41" height="40" viewBox="0 0 41 40" fill="none" xmlns="http://www.w3.org/2000/svg">
<path d="M6.90666 25.0183C4.10387 23.0913 1.12585 17.1354 5.85559 12.4054C7.52566 10.7353 10.5469 9.77771 13.2129 9.77771C20.0447 9.77771 22.6723 14.258 22.6723 17.6606C22.6723 21.8647 21.33 24.2102 18.2236 25.8888C15.8488 27.1722 11.9866 26.5948 10.5852 26.0693L6.99834 29.1436C6.9623 29.1744 6.90663 29.1488 6.90663 29.1014L6.90666 25.0183Z" fill="#171719" stroke="#171719" stroke-width="1.33333"/>
<rect x="14" y="5" width="27" height="18" rx="9" fill="#358FE9"/>
<path d="M23.8453 18.1074C22.1803 18.1074 20.9987 17.2051 20.9664 15.8945H22.3737C22.4166 16.5176 23.0397 16.9258 23.8453 16.9258C24.7047 16.9258 25.317 16.4531 25.317 15.7656C25.317 15.0674 24.7155 14.5625 23.7057 14.5625H23.0074V13.4883H23.7057C24.5328 13.4883 25.1129 13.0264 25.1022 12.3496C25.1129 11.6943 24.6188 11.2539 23.8561 11.2539C23.1256 11.2539 22.4918 11.6621 22.4703 12.3174H21.1276C21.1598 11.0068 22.3414 10.1152 23.8668 10.1152C25.4459 10.1152 26.4664 11.082 26.4557 12.2744C26.4664 13.1445 25.8864 13.7783 25.0377 13.9502V14.0146C26.1334 14.165 26.7565 14.8633 26.7457 15.8408C26.7565 17.1514 25.5319 18.1074 23.8453 18.1074ZM28.0287 16.5498V15.4326L31.391 10.2227H33.1312V15.4004H34.1517V16.5498H33.1312V18H31.7992V16.5498H28.0287ZM29.4574 15.4004H31.8207V11.8125H31.7347L29.4574 15.3467V15.4004Z" fill="#FEFFFF"/>
</svg>
