<svg width="36" height="36" viewBox="0 0 36 36" fill="none" xmlns="http://www.w3.org/2000/svg">
<path d="M16.5 18C18.9853 18 21 15.9853 21 13.5C21 11.0147 18.9853 9 16.5 9C14.0147 9 12 11.0147 12 13.5C12 15.9853 14.0147 18 16.5 18Z" stroke="#46474C" stroke-width="1.7" stroke-linecap="round" stroke-linejoin="round"/>
<path d="M7.5001 28C7.50031 27.5 7.31382 25.5312 7.84814 24.4755C8.77242 22.6494 11.1842 21.5 16.0001 21.5C20.5388 21.5 22.9806 22.7691 24.0005 24.4755C24.6884 25.6266 24.5004 27 24.5004 28" stroke="#46474C" stroke-width="1.7"/>
<path d="M23 18.25H29.5" stroke="#46474C" stroke-width="1.7"/>
<path d="M26.25 15L26.25 21.5" stroke="#46474C" stroke-width="1.7"/>
</svg>
